<svg width="100" height="100" viewBox="0 0 100 100" fill="none" xmlns="http://www.w3.org/2000/svg">
<rect width="100" height="100" rx="50" fill="#3B82F6"/>
<path d="M77.4793 35.0004L70.5175 30.9808L66.499 24.02H58.4611L51.4993 20.0005L44.5375 24.02H36.4996L32.48 30.9818L25.5194 35.0004V43.0383L21.4999 50.0001L25.5194 56.9618V64.9997L32.4812 69.0193L36.5008 75.9811H44.5387L51.4994 79.9996L58.4612 75.9801H66.4991L70.5187 69.0183L77.4805 64.9987V56.9608L81.5001 49.999L77.4805 43.0372V35.0004H77.4793ZM48.7917 62.2786C48.2323 62.838 47.4954 63.1098 46.7617 63.0995C46.0279 63.11 45.2911 62.838 44.7318 62.2786L35.958 53.5048C34.8589 52.4057 34.8589 50.6227 35.958 49.5237L38.2806 47.201C39.3797 46.1019 41.1627 46.1019 42.2618 47.201L46.7617 51.7009L60.7361 37.7255C61.8352 36.6264 63.6181 36.6264 64.7172 37.7255L67.0399 40.0482C68.139 41.1473 68.139 42.9303 67.0399 44.0293L48.7917 62.2786Z" fill="white"/>
</svg>
