<svg width="100" height="100" viewBox="0 0 100 100" fill="none" xmlns="http://www.w3.org/2000/svg">
<rect width="100" height="100" rx="50" fill="#3B82F6"/>
<g clip-path="url(#clip0_45_88)">
<path d="M72.7055 61.2467C70.638 61.2467 68.9567 59.5653 68.9567 57.4979C68.9567 55.4304 70.6381 53.749 72.7055 53.749C74.7731 53.749 76.4543 55.4304 76.4543 57.4979C76.4543 59.5653 74.773 61.2467 72.7055 61.2467ZM72.7055 54.6862C71.1551 54.6862 69.8939 55.9473 69.8939 57.4977C69.8939 59.0481 71.1551 60.3093 72.7055 60.3093C74.2559 60.3093 75.5172 59.0481 75.5172 57.4977C75.5172 55.9473 74.2559 54.6862 72.7055 54.6862Z" fill="white"/>
<path d="M78.7974 57.9654C78.7358 57.9655 78.6749 57.9534 78.618 57.9298C78.5611 57.9063 78.5095 57.8718 78.4659 57.8283C78.4224 57.7847 78.3879 57.7331 78.3643 57.6762C78.3408 57.6193 78.3287 57.5584 78.3287 57.4968C78.3287 54.3969 75.8064 51.8744 72.7055 51.8744C72.6439 51.8744 72.583 51.8623 72.5261 51.8388C72.4692 51.8152 72.4176 51.7807 72.3741 51.7372C72.3305 51.6937 72.296 51.642 72.2725 51.5851C72.2489 51.5283 72.2368 51.4673 72.2369 51.4058C72.2368 51.3442 72.2489 51.2833 72.2725 51.2264C72.296 51.1695 72.3305 51.1179 72.3741 51.0744C72.4176 51.0308 72.4693 50.9963 72.5261 50.9728C72.583 50.9493 72.644 50.9372 72.7055 50.9372C76.3226 50.9372 79.266 53.8797 79.266 57.4968C79.266 57.5584 79.2539 57.6193 79.2304 57.6762C79.2069 57.7331 79.1723 57.7847 79.1288 57.8283C79.0853 57.8718 79.0336 57.9063 78.9767 57.9298C78.9199 57.9534 78.8589 57.9655 78.7974 57.9654ZM72.7055 64.0581C69.0885 64.0581 66.1451 61.1147 66.1451 57.4978C66.1451 57.4362 66.1572 57.3753 66.1807 57.3184C66.2043 57.2615 66.2388 57.2098 66.2823 57.1663C66.3258 57.1228 66.3775 57.0883 66.4344 57.0647C66.4912 57.0412 66.5522 57.0291 66.6137 57.0291C66.6753 57.0291 66.7362 57.0412 66.7931 57.0647C66.85 57.0883 66.9016 57.1228 66.9451 57.1663C66.9887 57.2098 67.0232 57.2615 67.0467 57.3184C67.0702 57.3753 67.0823 57.4362 67.0823 57.4978C67.0823 60.5987 69.6047 63.121 72.7055 63.121C72.767 63.121 72.828 63.1331 72.8849 63.1566C72.9417 63.1801 72.9934 63.2147 73.0369 63.2582C73.0805 63.3017 73.115 63.3534 73.1385 63.4103C73.1621 63.4671 73.1742 63.5281 73.1741 63.5896C73.1742 63.6512 73.1621 63.7121 73.1385 63.769C73.115 63.8259 73.0805 63.8775 73.0369 63.921C72.9934 63.9645 72.9417 63.9991 72.8849 64.0226C72.828 64.0461 72.767 64.0582 72.7055 64.0581ZM72.7339 57.9663C72.4749 57.9663 72.2607 57.7566 72.2607 57.4976C72.2607 57.2387 72.4657 57.029 72.7238 57.029H72.7339C72.9919 57.029 73.2025 57.2387 73.2025 57.4976C73.2025 57.7566 72.9919 57.9663 72.7339 57.9663ZM59.6128 46.7198C59.3539 46.7198 59.1398 46.5101 59.1398 46.2512C59.1398 45.9922 59.3447 45.7825 59.6028 45.7825H59.6128C59.7371 45.7826 59.8562 45.832 59.9441 45.9199C60.032 46.0077 60.0814 46.1269 60.0815 46.2512C60.0814 46.3754 60.032 46.4946 59.9441 46.5824C59.8562 46.6703 59.7371 46.7197 59.6128 46.7198ZM72.7055 43.9081C72.6439 43.9081 72.583 43.896 72.5261 43.8725C72.4692 43.849 72.4176 43.8144 72.3741 43.7709C72.3305 43.7274 72.296 43.6757 72.2725 43.6188C72.2489 43.562 72.2368 43.501 72.2369 43.4395V33.13C72.2369 32.871 72.4465 32.6614 72.7055 32.6614C72.9645 32.6614 73.1741 32.871 73.1741 33.13V43.4395C73.1742 43.501 73.1621 43.562 73.1385 43.6188C73.115 43.6757 73.0805 43.7274 73.0369 43.7709C72.9934 43.8144 72.9417 43.849 72.8849 43.8725C72.828 43.896 72.767 43.9081 72.7055 43.9081ZM25.8727 33.1301C25.6142 33.1301 25.3996 32.9206 25.3996 32.6615C25.3996 32.4024 25.6046 32.1929 25.8637 32.1929H25.8727C26.1318 32.1929 26.3413 32.4024 26.3413 32.6615C26.3413 32.9206 26.1318 33.1301 25.8727 33.1301ZM27.7471 33.1301C27.4886 33.1301 27.274 32.9206 27.274 32.6615C27.274 32.4024 27.479 32.1929 27.738 32.1929H27.7471C28.0062 32.1929 28.2157 32.4024 28.2157 32.6615C28.2157 32.9206 28.0062 33.1301 27.7471 33.1301ZM29.6215 33.1301C29.363 33.1301 29.1484 32.9206 29.1484 32.6615C29.1484 32.4024 29.3534 32.1929 29.6124 32.1929H29.6215C29.8806 32.1929 30.0901 32.4024 30.0901 32.6615C30.0901 32.9206 29.8806 33.1301 29.6215 33.1301Z" fill="white"/>
<path d="M72.7055 34.0674H23.9705C23.909 34.0674 23.848 34.0553 23.7912 34.0318C23.7343 34.0083 23.6826 33.9737 23.6391 33.9302C23.5956 33.8867 23.561 33.835 23.5375 33.7782C23.514 33.7213 23.5019 33.6603 23.5019 33.5988V32.6615C23.5019 31.8863 24.1325 31.2556 24.9077 31.2556H71.7684C72.5436 31.2556 73.1742 31.8862 73.1742 32.6615V33.5988C73.1742 33.6603 73.1621 33.7213 73.1385 33.7782C73.115 33.835 73.0805 33.8867 73.037 33.9302C72.9934 33.9737 72.9418 34.0083 72.8849 34.0318C72.828 34.0553 72.7671 34.0674 72.7055 34.0674ZM24.439 33.1301H72.2369V32.6615C72.2369 32.4071 72.0228 32.1929 71.7684 32.1929H24.9077C24.7834 32.193 24.6643 32.2425 24.5765 32.3303C24.4886 32.4182 24.4392 32.5373 24.439 32.6615V33.1301Z" fill="white"/>
<path d="M23.9705 68.7442C23.909 68.7443 23.848 68.7322 23.7912 68.7086C23.7343 68.6851 23.6826 68.6506 23.6391 68.607C23.5956 68.5635 23.561 68.5118 23.5375 68.455C23.514 68.3981 23.5019 68.3371 23.5019 68.2756V33.5988C23.5019 33.5372 23.514 33.4763 23.5375 33.4194C23.561 33.3625 23.5956 33.3108 23.6391 33.2673C23.6826 33.2238 23.7343 33.1893 23.7912 33.1657C23.848 33.1422 23.909 33.1301 23.9705 33.1301C24.0321 33.1301 24.093 33.1422 24.1499 33.1657C24.2067 33.1893 24.2584 33.2238 24.3019 33.2673C24.3454 33.3108 24.3799 33.3625 24.4035 33.4194C24.427 33.4763 24.4391 33.5372 24.439 33.5988V68.2756C24.4391 68.3371 24.427 68.3981 24.4035 68.455C24.3799 68.5118 24.3454 68.5635 24.3019 68.607C24.2584 68.6506 24.2067 68.6851 24.1499 68.7086C24.093 68.7322 24.0321 68.7443 23.9705 68.7442Z" fill="white"/>
<path d="M68.0194 68.7441H23.9705C23.7114 68.7441 23.5019 68.5345 23.5019 68.2755C23.5019 68.0165 23.7114 67.8069 23.9705 67.8069H68.0196C68.2785 67.8069 68.4881 68.0165 68.4881 68.2755C68.4881 68.5345 68.2784 68.7441 68.0194 68.7441Z" fill="white"/>
<path d="M25.8449 68.7442C25.7834 68.7443 25.7224 68.7322 25.6655 68.7086C25.6087 68.6851 25.557 68.6506 25.5135 68.607C25.4699 68.5635 25.4354 68.5118 25.4119 68.455C25.3884 68.3981 25.3763 68.3371 25.3763 68.2756V33.5988C25.3763 33.5372 25.3884 33.4763 25.4119 33.4194C25.4354 33.3625 25.4699 33.3108 25.5135 33.2673C25.557 33.2238 25.6087 33.1893 25.6655 33.1657C25.7224 33.1422 25.7834 33.1301 25.8449 33.1301C25.9065 33.1301 25.9674 33.1422 26.0243 33.1657C26.0811 33.1893 26.1328 33.2238 26.1763 33.2673C26.2198 33.3108 26.2543 33.3625 26.2779 33.4194C26.3014 33.4763 26.3135 33.5372 26.3134 33.5988V68.2756C26.3135 68.3371 26.3014 68.3981 26.2779 68.455C26.2543 68.5118 26.2198 68.5635 26.1763 68.607C26.1328 68.6506 26.0811 68.6851 26.0243 68.7086C25.9674 68.7322 25.9065 68.7443 25.8449 68.7442Z" fill="white"/>
<path d="M24.9077 37.8162H23.9705C23.7114 37.8162 23.5019 37.6065 23.5019 37.3475C23.5019 37.0886 23.7114 36.8789 23.9705 36.8789H24.9077C25.1667 36.8789 25.3763 37.0886 25.3763 37.3475C25.3763 37.6065 25.1667 37.8162 24.9077 37.8162ZM24.9077 40.6277H23.9705C23.7114 40.6277 23.5019 40.4182 23.5019 40.1591C23.5019 39.9 23.7114 39.6905 23.9705 39.6905H24.9077C25.1667 39.6905 25.3763 39.9 25.3763 40.1591C25.3763 40.4182 25.1667 40.6277 24.9077 40.6277ZM24.9077 43.4395H23.9705C23.909 43.4396 23.848 43.4275 23.7912 43.4039C23.7343 43.3804 23.6826 43.3459 23.6391 43.3023C23.5956 43.2588 23.561 43.2071 23.5375 43.1503C23.514 43.0934 23.5019 43.0324 23.5019 42.9709C23.5019 42.9093 23.514 42.8484 23.5375 42.7915C23.561 42.7347 23.5956 42.683 23.6391 42.6395C23.6826 42.5959 23.7343 42.5614 23.7912 42.5379C23.848 42.5143 23.909 42.5022 23.9705 42.5023H24.9077C24.9692 42.5022 25.0302 42.5143 25.087 42.5379C25.1439 42.5614 25.1956 42.5959 25.2391 42.6395C25.2826 42.683 25.3172 42.7347 25.3407 42.7915C25.3642 42.8484 25.3763 42.9093 25.3763 42.9709C25.3763 43.0324 25.3642 43.0934 25.3407 43.1503C25.3172 43.2071 25.2826 43.2588 25.2391 43.3023C25.1956 43.3459 25.1439 43.3804 25.087 43.4039C25.0302 43.4275 24.9692 43.4396 24.9077 43.4395ZM24.9077 46.2511H23.9705C23.909 46.2511 23.848 46.239 23.7911 46.2155C23.7343 46.192 23.6826 46.1575 23.639 46.1139C23.5955 46.0704 23.561 46.0187 23.5375 45.9619C23.5139 45.905 23.5018 45.844 23.5019 45.7825C23.5019 45.7209 23.514 45.66 23.5375 45.6031C23.561 45.5462 23.5956 45.4945 23.6391 45.451C23.6826 45.4075 23.7343 45.373 23.7912 45.3494C23.848 45.3259 23.909 45.3138 23.9705 45.3138H24.9077C24.9692 45.3138 25.0302 45.3259 25.087 45.3494C25.1439 45.373 25.1956 45.4075 25.2391 45.451C25.2826 45.4945 25.3172 45.5462 25.3407 45.6031C25.3642 45.66 25.3763 45.7209 25.3763 45.7825C25.3763 45.844 25.3642 45.905 25.3407 45.9618C25.3172 46.0187 25.2826 46.0704 25.2391 46.1139C25.1956 46.1574 25.1439 46.1919 25.087 46.2155C25.0302 46.239 24.9692 46.2511 24.9077 46.2511ZM24.9077 49.0627H23.9705C23.909 49.0627 23.848 49.0506 23.7912 49.027C23.7343 49.0035 23.6826 48.969 23.6391 48.9255C23.5956 48.8819 23.561 48.8303 23.5375 48.7734C23.514 48.7165 23.5019 48.6556 23.5019 48.594C23.5019 48.5325 23.514 48.4715 23.5375 48.4146C23.561 48.3578 23.5956 48.3061 23.6391 48.2626C23.6826 48.2191 23.7343 48.1845 23.7912 48.161C23.848 48.1375 23.909 48.1254 23.9705 48.1254H24.9077C24.9692 48.1254 25.0302 48.1375 25.087 48.161C25.1439 48.1845 25.1956 48.2191 25.2391 48.2626C25.2826 48.3061 25.3172 48.3578 25.3407 48.4146C25.3642 48.4715 25.3763 48.5325 25.3763 48.594C25.3763 48.6556 25.3642 48.7165 25.3407 48.7734C25.3172 48.8303 25.2826 48.8819 25.2391 48.9255C25.1956 48.969 25.1439 49.0035 25.087 49.027C25.0302 49.0506 24.9692 49.0627 24.9077 49.0627ZM24.9077 51.8743H23.9705C23.909 51.8744 23.848 51.8623 23.7911 51.8388C23.7343 51.8152 23.6826 51.7807 23.639 51.7372C23.5955 51.6937 23.561 51.642 23.5375 51.5851C23.5139 51.5282 23.5018 51.4673 23.5019 51.4057C23.5019 51.3442 23.514 51.2832 23.5375 51.2263C23.561 51.1695 23.5956 51.1178 23.6391 51.0743C23.6826 51.0308 23.7343 50.9963 23.7912 50.9728C23.848 50.9492 23.909 50.9371 23.9705 50.9372H24.9077C24.9692 50.9371 25.0302 50.9492 25.087 50.9728C25.1439 50.9963 25.1956 51.0308 25.2391 51.0743C25.2826 51.1178 25.3172 51.1695 25.3407 51.2263C25.3642 51.2832 25.3763 51.3442 25.3763 51.4057C25.3763 51.4673 25.3642 51.5282 25.3407 51.5851C25.3172 51.642 25.2826 51.6936 25.2391 51.7371C25.1956 51.7807 25.1439 51.8152 25.087 51.8387C25.0302 51.8623 24.9692 51.8744 24.9077 51.8743ZM24.9077 54.686H23.9705C23.7114 54.686 23.5019 54.4764 23.5019 54.2174C23.5019 53.9584 23.7114 53.7487 23.9705 53.7487H24.9077C25.1667 53.7487 25.3763 53.9584 25.3763 54.2174C25.3763 54.4764 25.1667 54.686 24.9077 54.686ZM24.9077 57.4976H23.9705C23.7114 57.4976 23.5019 57.2879 23.5019 57.0289C23.5019 56.77 23.7114 56.5603 23.9705 56.5603H24.9077C25.1667 56.5603 25.3763 56.77 25.3763 57.0289C25.3763 57.2879 25.1667 57.4976 24.9077 57.4976ZM24.9077 60.3093H23.9705C23.909 60.3093 23.848 60.2972 23.7912 60.2737C23.7343 60.2502 23.6826 60.2157 23.6391 60.1721C23.5956 60.1286 23.561 60.077 23.5375 60.0201C23.514 59.9632 23.5019 59.9023 23.5019 59.8407C23.5018 59.7792 23.5139 59.7182 23.5375 59.6614C23.561 59.6045 23.5955 59.5528 23.639 59.5093C23.6826 59.4657 23.7343 59.4312 23.7911 59.4077C23.848 59.3842 23.909 59.3721 23.9705 59.3721H24.9077C24.9692 59.3721 25.0302 59.3842 25.087 59.4077C25.1439 59.4313 25.1956 59.4658 25.2391 59.5093C25.2826 59.5528 25.3172 59.6045 25.3407 59.6614C25.3642 59.7182 25.3763 59.7792 25.3763 59.8407C25.3763 59.9023 25.3642 59.9632 25.3407 60.0201C25.3172 60.077 25.2826 60.1286 25.2391 60.1721C25.1956 60.2157 25.1439 60.2502 25.087 60.2737C25.0302 60.2972 24.9692 60.3093 24.9077 60.3093ZM24.9077 63.1209H23.9705C23.909 63.121 23.848 63.1089 23.7911 63.0854C23.7343 63.0618 23.6826 63.0273 23.639 62.9838C23.5955 62.9403 23.561 62.8886 23.5375 62.8317C23.5139 62.7748 23.5018 62.7139 23.5019 62.6523C23.5019 62.5908 23.514 62.5298 23.5375 62.4729C23.561 62.4161 23.5956 62.3644 23.6391 62.3209C23.6826 62.2774 23.7343 62.2429 23.7912 62.2194C23.848 62.1958 23.909 62.1837 23.9705 62.1838H24.9077C24.9692 62.1837 25.0302 62.1958 25.087 62.2194C25.1439 62.2429 25.1956 62.2774 25.2391 62.3209C25.2826 62.3644 25.3172 62.4161 25.3407 62.4729C25.3642 62.5298 25.3763 62.5908 25.3763 62.6523C25.3763 62.7139 25.3642 62.7748 25.3407 62.8317C25.3172 62.8885 25.2826 62.9402 25.2391 62.9837C25.1956 63.0273 25.1439 63.0618 25.087 63.0853C25.0302 63.1089 24.9692 63.121 24.9077 63.1209ZM24.9077 65.9325H23.9705C23.909 65.9325 23.848 65.9205 23.7911 65.8969C23.7343 65.8734 23.6826 65.8389 23.639 65.7953C23.5955 65.7518 23.561 65.7001 23.5375 65.6433C23.5139 65.5864 23.5018 65.5254 23.5019 65.4639C23.5019 65.4023 23.514 65.3414 23.5375 65.2845C23.561 65.2276 23.5956 65.176 23.6391 65.1325C23.6826 65.089 23.7343 65.0544 23.7912 65.0309C23.848 65.0074 23.909 64.9953 23.9705 64.9954H24.9077C24.9692 64.9953 25.0302 65.0074 25.087 65.0309C25.1439 65.0544 25.1956 65.089 25.2391 65.1325C25.2826 65.176 25.3172 65.2276 25.3407 65.2845C25.3642 65.3414 25.3763 65.4023 25.3763 65.4639C25.3763 65.5254 25.3642 65.5864 25.3407 65.6432C25.3172 65.7001 25.2826 65.7518 25.2391 65.7953C25.1956 65.8388 25.1439 65.8734 25.087 65.8969C25.0302 65.9204 24.9692 65.9325 24.9077 65.9325ZM32.4053 37.8162H28.6565C28.3975 37.8162 28.1879 37.6065 28.1879 37.3475C28.1879 37.0886 28.3975 36.8789 28.6565 36.8789H32.4053C32.6643 36.8789 32.874 37.0886 32.874 37.3475C32.874 37.6065 32.6643 37.8162 32.4053 37.8162ZM52.0867 40.6277H36.1542C35.8952 40.6277 35.6855 40.4182 35.6855 40.1591C35.6855 39.9 35.8952 39.6905 36.1542 39.6905H52.0867C52.3458 39.6905 52.5554 39.9 52.5554 40.1591C52.5554 40.4182 52.3458 40.6277 52.0867 40.6277ZM34.2797 40.6277H29.5938C29.3347 40.6277 29.1251 40.4182 29.1251 40.1591C29.1251 39.9 29.3347 39.6905 29.5938 39.6905H34.2797C34.5387 39.6905 34.7484 39.9 34.7484 40.1591C34.7484 40.4182 34.5387 40.6277 34.2797 40.6277ZM50.2123 43.4395H47.4008C47.3392 43.4396 47.2783 43.4275 47.2214 43.4039C47.1645 43.3804 47.1128 43.3459 47.0693 43.3023C47.0258 43.2588 46.9913 43.2071 46.9677 43.1503C46.9442 43.0934 46.9321 43.0324 46.9321 42.9709C46.9321 42.9093 46.9442 42.8484 46.9677 42.7915C46.9913 42.7347 47.0258 42.683 47.0693 42.6395C47.1128 42.5959 47.1645 42.5614 47.2214 42.5379C47.2783 42.5143 47.3392 42.5022 47.4008 42.5023H50.2123C50.2739 42.5022 50.3348 42.5143 50.3917 42.5379C50.4486 42.5614 50.5002 42.5959 50.5438 42.6395C50.5873 42.683 50.6218 42.7347 50.6453 42.7915C50.6689 42.8484 50.681 42.9093 50.681 42.9709C50.681 43.0324 50.6689 43.0934 50.6453 43.1503C50.6218 43.2071 50.5873 43.2588 50.5438 43.3023C50.5002 43.3459 50.4486 43.3804 50.3917 43.4039C50.3348 43.4275 50.2739 43.4396 50.2123 43.4395ZM45.5263 43.4395H30.5309C30.4694 43.4396 30.4084 43.4275 30.3515 43.4039C30.2947 43.3804 30.243 43.3459 30.1995 43.3023C30.156 43.2588 30.1214 43.2071 30.0979 43.1503C30.0744 43.0934 30.0623 43.0324 30.0623 42.9709C30.0623 42.9093 30.0744 42.8484 30.0979 42.7915C30.1214 42.7347 30.156 42.683 30.1995 42.6395C30.243 42.5959 30.2947 42.5614 30.3515 42.5379C30.4084 42.5143 30.4694 42.5022 30.5309 42.5023H45.5263C45.5879 42.5022 45.6488 42.5143 45.7057 42.5379C45.7626 42.5614 45.8143 42.5959 45.8578 42.6395C45.9013 42.683 45.9358 42.7347 45.9594 42.7915C45.9829 42.8484 45.995 42.9093 45.995 42.9709C45.995 43.0324 45.9829 43.0934 45.9594 43.1503C45.9358 43.2071 45.9013 43.2588 45.8578 43.3023C45.8143 43.3459 45.7626 43.3804 45.7057 43.4039C45.6488 43.4275 45.5879 43.4396 45.5263 43.4395ZM33.3425 49.0627H30.5309C30.4694 49.0627 30.4084 49.0506 30.3515 49.027C30.2947 49.0035 30.243 48.969 30.1995 48.9255C30.156 48.8819 30.1214 48.8303 30.0979 48.7734C30.0744 48.7165 30.0623 48.6556 30.0623 48.594C30.0623 48.5325 30.0744 48.4715 30.0979 48.4146C30.1214 48.3578 30.156 48.3061 30.1995 48.2626C30.243 48.2191 30.2947 48.1845 30.3515 48.161C30.4084 48.1375 30.4694 48.1254 30.5309 48.1254H33.3425C33.404 48.1254 33.465 48.1375 33.5219 48.161C33.5787 48.1845 33.6304 48.2191 33.6739 48.2626C33.7174 48.3061 33.752 48.3578 33.7755 48.4146C33.799 48.4715 33.8111 48.5325 33.8111 48.594C33.8112 48.6556 33.7991 48.7165 33.7755 48.7734C33.752 48.8303 33.7175 48.882 33.674 48.9255C33.6304 48.969 33.5787 49.0035 33.5219 49.0271C33.465 49.0506 33.404 49.0627 33.3425 49.0627ZM49.1287 49.0627H35.2169C35.1553 49.0627 35.0944 49.0506 35.0375 49.027C34.9807 49.0035 34.929 48.969 34.8855 48.9255C34.842 48.8819 34.8075 48.8303 34.7839 48.7734C34.7604 48.7165 34.7483 48.6556 34.7484 48.594C34.7483 48.5325 34.7604 48.4715 34.7839 48.4147C34.8075 48.3578 34.842 48.3061 34.8855 48.2626C34.929 48.2191 34.9807 48.1845 35.0375 48.161C35.0944 48.1375 35.1553 48.1254 35.2169 48.1254H49.1287C49.1902 48.1254 49.2512 48.1375 49.3081 48.161C49.3649 48.1845 49.4166 48.2191 49.4601 48.2626C49.5037 48.3061 49.5382 48.3578 49.5617 48.4146C49.5853 48.4715 49.5974 48.5325 49.5973 48.594C49.5974 48.6556 49.5853 48.7165 49.5617 48.7734C49.5382 48.8303 49.5037 48.8819 49.4601 48.9255C49.4166 48.969 49.3649 49.0035 49.3081 49.027C49.2512 49.0506 49.1902 49.0627 49.1287 49.0627ZM33.3425 60.3093H30.5309C30.4694 60.3093 30.4084 60.2972 30.3516 60.2737C30.2947 60.2502 30.243 60.2157 30.1995 60.1721C30.156 60.1286 30.1214 60.077 30.0979 60.0201C30.0744 59.9632 30.0623 59.9023 30.0623 59.8407C30.0623 59.7792 30.0744 59.7182 30.0979 59.6614C30.1214 59.6045 30.156 59.5528 30.1995 59.5093C30.243 59.4658 30.2947 59.4313 30.3515 59.4077C30.4084 59.3842 30.4694 59.3721 30.5309 59.3721H33.3425C33.404 59.3721 33.465 59.3842 33.5219 59.4077C33.5787 59.4312 33.6304 59.4657 33.674 59.5093C33.7175 59.5528 33.752 59.6045 33.7755 59.6614C33.7991 59.7182 33.8112 59.7792 33.8111 59.8407C33.8111 59.9023 33.799 59.9632 33.7755 60.0201C33.752 60.077 33.7174 60.1286 33.6739 60.1721C33.6304 60.2157 33.5787 60.2502 33.5218 60.2737C33.465 60.2972 33.404 60.3093 33.3425 60.3093ZM48.1915 60.3093H35.2169C35.1554 60.3093 35.0944 60.2972 35.0375 60.2737C34.9807 60.2502 34.929 60.2157 34.8855 60.1721C34.842 60.1286 34.8075 60.077 34.7839 60.0201C34.7604 59.9632 34.7483 59.9023 34.7484 59.8407C34.7483 59.7792 34.7604 59.7182 34.7839 59.6614C34.8075 59.6045 34.842 59.5528 34.8855 59.5093C34.929 59.4658 34.9807 59.4313 35.0375 59.4077C35.0944 59.3842 35.1553 59.3721 35.2169 59.3721H48.1915C48.2531 59.3721 48.314 59.3842 48.3709 59.4077C48.4278 59.4313 48.4794 59.4658 48.5229 59.5093C48.5665 59.5528 48.601 59.6045 48.6245 59.6614C48.648 59.7182 48.6601 59.7792 48.6601 59.8407C48.6601 59.9023 48.648 59.9632 48.6245 60.0201C48.601 60.077 48.5665 60.1286 48.5229 60.1721C48.4794 60.2157 48.4278 60.2502 48.3709 60.2737C48.314 60.2972 48.2531 60.3093 48.1915 60.3093ZM43.6519 46.2511H31.4681C31.4065 46.2511 31.3456 46.239 31.2887 46.2155C31.2318 46.1919 31.1802 46.1574 31.1367 46.1139C31.0931 46.0704 31.0586 46.0187 31.0351 45.9618C31.0116 45.905 30.9995 45.844 30.9995 45.7825C30.9995 45.7209 31.0116 45.66 31.0351 45.6031C31.0586 45.5462 31.0931 45.4946 31.1367 45.451C31.1802 45.4075 31.2318 45.373 31.2887 45.3494C31.3456 45.3259 31.4065 45.3138 31.4681 45.3138H43.6519C43.7135 45.3138 43.7744 45.3259 43.8313 45.3494C43.8882 45.373 43.9398 45.4075 43.9834 45.451C44.0269 45.4945 44.0614 45.5462 44.085 45.6031C44.1085 45.66 44.1206 45.7209 44.1206 45.7825C44.1206 45.844 44.1085 45.905 44.085 45.9618C44.0614 46.0187 44.0269 46.0704 43.9834 46.1139C43.9398 46.1574 43.8882 46.1919 43.8313 46.2155C43.7744 46.239 43.7135 46.2511 43.6519 46.2511ZM52.0867 51.8743H42.7145C42.653 51.8744 42.5921 51.8623 42.5352 51.8387C42.4783 51.8152 42.4267 51.7807 42.3831 51.7371C42.3396 51.6936 42.3051 51.6419 42.2816 51.5851C42.2581 51.5282 42.246 51.4672 42.246 51.4057C42.246 51.3442 42.2581 51.2832 42.2816 51.2264C42.3051 51.1695 42.3396 51.1178 42.3832 51.0743C42.4267 51.0308 42.4783 50.9963 42.5352 50.9728C42.5921 50.9492 42.653 50.9371 42.7145 50.9372H52.0867C52.1483 50.9371 52.2092 50.9492 52.2661 50.9728C52.323 50.9963 52.3746 51.0308 52.4182 51.0743C52.4617 51.1178 52.4962 51.1695 52.5198 51.2263C52.5433 51.2832 52.5554 51.3442 52.5554 51.4057C52.5554 51.4673 52.5433 51.5282 52.5198 51.5851C52.4963 51.642 52.4617 51.6937 52.4182 51.7372C52.3747 51.7807 52.323 51.8152 52.2661 51.8388C52.2093 51.8623 52.1483 51.8744 52.0867 51.8743ZM44.5891 54.686H29.5938C29.3347 54.686 29.1251 54.4764 29.1251 54.2174C29.1251 53.9584 29.3347 53.7487 29.5938 53.7487H44.5891C44.8482 53.7487 45.0577 53.9584 45.0577 54.2174C45.0577 54.4764 44.8482 54.686 44.5891 54.686ZM39.9031 63.1209H29.5938C29.5322 63.121 29.4713 63.1089 29.4144 63.0854C29.3575 63.0618 29.3058 63.0273 29.2623 62.9838C29.2188 62.9403 29.1842 62.8886 29.1607 62.8317C29.1372 62.7748 29.1251 62.7139 29.1251 62.6523C29.1251 62.5908 29.1372 62.5298 29.1607 62.4729C29.1843 62.4161 29.2188 62.3644 29.2623 62.3209C29.3059 62.2774 29.3575 62.2429 29.4144 62.2194C29.4713 62.1958 29.5322 62.1837 29.5938 62.1838H39.9031C39.9646 62.1837 40.0256 62.1958 40.0825 62.2194C40.1393 62.2429 40.191 62.2774 40.2345 62.3209C40.2781 62.3644 40.3126 62.4161 40.3361 62.4729C40.3597 62.5298 40.3718 62.5908 40.3717 62.6523C40.3718 62.7139 40.3597 62.7748 40.3361 62.8317C40.3126 62.8885 40.2781 62.9402 40.2345 62.9837C40.191 63.0273 40.1393 63.0618 40.0825 63.0853C40.0256 63.1089 39.9647 63.121 39.9031 63.1209ZM55.8357 57.4976H41.7775C41.5185 57.4976 41.3089 57.2879 41.3089 57.0289C41.3089 56.77 41.5185 56.5603 41.7775 56.5603H55.8357C56.0948 56.5603 56.3043 56.77 56.3043 57.0289C56.3043 57.2879 56.0948 57.4976 55.8357 57.4976ZM39.9031 57.4976H30.5309C30.2719 57.4976 30.0623 57.2879 30.0623 57.0289C30.0623 56.77 30.2719 56.5603 30.5309 56.5603H39.9031C40.1621 56.5603 40.3717 56.77 40.3717 57.0289C40.3717 57.2879 40.1621 57.4976 39.9031 57.4976ZM32.4053 65.9325H28.6565C28.595 65.9325 28.534 65.9204 28.4771 65.8969C28.4203 65.8734 28.3686 65.8388 28.3251 65.7953C28.2815 65.7518 28.247 65.7001 28.2235 65.6432C28.1999 65.5864 28.1878 65.5254 28.1879 65.4639C28.1878 65.4023 28.1999 65.3414 28.2235 65.2845C28.247 65.2276 28.2815 65.176 28.3251 65.1325C28.3686 65.089 28.4203 65.0544 28.4771 65.0309C28.534 65.0074 28.595 64.9953 28.6565 64.9954H32.4053C32.4669 64.9953 32.5278 65.0074 32.5847 65.0309C32.6416 65.0544 32.6932 65.089 32.7368 65.1325C32.7803 65.176 32.8148 65.2276 32.8384 65.2845C32.8619 65.3414 32.874 65.4023 32.874 65.4639C32.874 65.5254 32.8619 65.5864 32.8384 65.6432C32.8148 65.7001 32.7803 65.7518 32.7368 65.7953C32.6932 65.8388 32.6416 65.8734 32.5847 65.8969C32.5278 65.9204 32.4669 65.9325 32.4053 65.9325ZM53.9613 54.686H46.4636C46.2046 54.686 45.9951 54.4764 45.9951 54.2174C45.9951 53.9584 46.2046 53.7487 46.4636 53.7487H53.9613C54.2204 53.7487 54.4299 53.9584 54.4299 54.2174C54.4299 54.4764 54.2203 54.686 53.9613 54.686ZM40.8403 51.8743H30.5309C30.4694 51.8744 30.4084 51.8623 30.3515 51.8387C30.2947 51.8152 30.243 51.7807 30.1995 51.7371C30.156 51.6936 30.1214 51.642 30.0979 51.5851C30.0744 51.5282 30.0623 51.4673 30.0623 51.4057C30.0623 51.3442 30.0744 51.2832 30.0979 51.2263C30.1214 51.1695 30.156 51.1178 30.1995 51.0743C30.243 51.0308 30.2947 50.9963 30.3516 50.9728C30.4084 50.9492 30.4694 50.9371 30.5309 50.9372H40.8403C40.9018 50.9371 40.9627 50.9492 41.0196 50.9728C41.0765 50.9963 41.1282 51.0308 41.1717 51.0743C41.2152 51.1178 41.2497 51.1695 41.2733 51.2263C41.2968 51.2832 41.3089 51.3442 41.3089 51.4057C41.3089 51.4673 41.2968 51.5282 41.2733 51.5851C41.2498 51.642 41.2153 51.6937 41.1717 51.7372C41.1282 51.7807 41.0765 51.8152 41.0196 51.8388C40.9628 51.8623 40.9018 51.8744 40.8403 51.8743Z" fill="white"/>
<path d="M74.5799 68.7442H70.8311C70.7695 68.7442 70.7086 68.7321 70.6517 68.7086C70.5948 68.685 70.5432 68.6505 70.4997 68.607C70.4561 68.5635 70.4216 68.5118 70.3981 68.4549C70.3745 68.3981 70.3624 68.3371 70.3625 68.2755V66.0826C68.8834 65.6798 67.5418 64.9037 66.4471 63.8174L64.4913 64.9459C64.2661 65.075 63.9796 64.999 63.8515 64.7747L61.9771 61.5274C61.9462 61.4742 61.9261 61.4154 61.918 61.3544C61.9099 61.2934 61.9139 61.2314 61.9299 61.172C61.9458 61.1126 61.9732 61.0569 62.0107 61.0081C62.0482 60.9593 62.095 60.9184 62.1483 60.8877L64.0941 59.7638C63.7052 58.2787 63.7048 56.7185 64.0932 55.2333L62.1474 54.1093C62.094 54.0787 62.0473 54.0378 62.0098 53.989C61.9723 53.9402 61.9448 53.8845 61.9289 53.825C61.913 53.7656 61.909 53.7036 61.9171 53.6426C61.9252 53.5816 61.9453 53.5228 61.9762 53.4696L63.8515 50.2205C63.8821 50.1671 63.9229 50.1203 63.9715 50.0828C64.0202 50.0452 64.0759 50.0177 64.1352 50.0017C64.257 49.9705 64.3833 49.9861 64.4913 50.0493L66.4463 51.1778C67.5419 50.0913 68.8836 49.3152 70.3626 48.9125V46.7196C70.3625 46.6581 70.3746 46.5971 70.3982 46.5402C70.4217 46.4834 70.4562 46.4317 70.4998 46.3882C70.5433 46.3446 70.595 46.3101 70.6518 46.2866C70.7087 46.263 70.7697 46.2509 70.8312 46.251H74.58C74.6416 46.2509 74.7025 46.263 74.7594 46.2866C74.8163 46.3101 74.868 46.3446 74.9115 46.3882C74.955 46.4317 74.9895 46.4834 75.0131 46.5402C75.0366 46.5971 75.0487 46.6581 75.0487 46.7196V48.9125C76.5277 49.3153 77.8694 50.0914 78.965 51.1778L80.92 50.0493C80.9733 50.0183 81.0322 49.9982 81.0933 49.99C81.1544 49.9819 81.2165 49.9858 81.276 50.0017C81.3354 50.0177 81.391 50.0452 81.4397 50.0828C81.4884 50.1203 81.5292 50.1671 81.5597 50.2205L83.4341 53.4677C83.465 53.5209 83.4851 53.5797 83.4932 53.6407C83.5014 53.7017 83.4973 53.7637 83.4814 53.8231C83.4656 53.8826 83.4381 53.9383 83.4006 53.9871C83.3631 54.0359 83.3164 54.0768 83.263 54.1075L81.3173 55.2314C81.5113 55.97 81.6092 56.7306 81.6092 57.4976C81.6092 58.2646 81.5113 59.0251 81.3173 59.7628L83.264 60.8877C83.3173 60.9184 83.3641 60.9594 83.4016 61.0083C83.4392 61.0571 83.4667 61.1129 83.4827 61.1723C83.5145 61.2923 83.4974 61.42 83.4351 61.5274L81.5597 64.7747C81.5292 64.8282 81.4883 64.875 81.4396 64.9126C81.3908 64.9502 81.335 64.9778 81.2756 64.9937C81.2161 65.0096 81.154 65.0136 81.093 65.0054C81.032 64.9972 80.9732 64.977 80.92 64.9459L78.9641 63.8174C77.8695 64.9038 76.5278 65.68 75.0488 66.0826V68.2755C75.0488 68.3371 75.0366 68.3981 75.0131 68.4549C74.9895 68.5118 74.955 68.5635 74.9114 68.607C74.8679 68.6505 74.8162 68.685 74.7593 68.7085C74.7024 68.7321 74.6415 68.7442 74.5799 68.7442ZM71.2997 67.8069H74.1113V65.7165C74.1112 65.6104 74.1472 65.5074 74.2134 65.4244C74.2796 65.3414 74.372 65.2834 74.4755 65.2598C76.036 64.9048 77.4409 64.092 78.5384 62.9105C78.6101 62.832 78.7066 62.7805 78.8117 62.7647C78.9169 62.7489 79.0243 62.7696 79.1159 62.8235L80.983 63.9007L82.3898 61.4643L80.5319 60.3916C80.4399 60.3387 80.3687 60.256 80.3299 60.1572C80.2912 60.0584 80.2872 59.9494 80.3187 59.848C80.553 59.0875 80.672 58.2967 80.672 57.4976C80.672 56.6985 80.553 55.9078 80.3187 55.1463C80.2872 55.045 80.2912 54.9359 80.3299 54.8371C80.3687 54.7383 80.4399 54.6556 80.5319 54.6027L82.3889 53.5309L80.9832 51.0946L79.117 52.1718C79.0252 52.2254 78.9179 52.2461 78.8129 52.2303C78.7078 52.2144 78.6113 52.1631 78.5395 52.0848C77.4411 50.9033 76.0362 50.0905 74.4756 49.7354C74.3721 49.7119 74.2797 49.6538 74.2136 49.5709C74.1474 49.4879 74.1114 49.3849 74.1114 49.2787V47.1884H71.2998V49.2787C71.2999 49.3849 71.2639 49.4879 71.1977 49.5709C71.1315 49.6539 71.0391 49.7119 70.9356 49.7354C69.3752 50.0905 67.9702 50.9033 66.8719 52.0848C66.8001 52.1631 66.7036 52.2145 66.5985 52.2303C66.4934 52.2461 66.386 52.2255 66.2943 52.1718L64.4281 51.0946L63.0214 53.5328L64.8784 54.6046C64.9704 54.6573 65.0417 54.7398 65.0804 54.8384C65.1192 54.9371 65.1232 55.046 65.0917 55.1473C64.8581 55.9089 64.7393 56.7011 64.7392 57.4977C64.739 58.2947 64.8582 59.0872 65.0927 59.8489C65.1241 59.9503 65.1201 60.0594 65.0814 60.1582C65.0426 60.257 64.9714 60.3396 64.8794 60.3926L63.0223 61.4644L64.4281 63.9008L66.2952 62.8236C66.4838 62.712 66.7245 62.7495 66.8729 62.9106C67.9702 64.0921 69.3752 64.9049 70.9356 65.26C71.0391 65.2835 71.1315 65.3415 71.1977 65.4245C71.2639 65.5075 71.2999 65.6105 71.2998 65.7166V67.8069H71.2997Z" fill="white"/>
<path d="M59.5616 52.0631C59.4802 52.0631 59.3997 52.042 59.3274 52C59.2741 51.9695 59.2273 51.9287 59.1898 51.88C59.1522 51.8313 59.1247 51.7757 59.1087 51.7163L58.8816 50.866C58.5411 50.8154 58.2074 50.7267 57.8868 50.6014L57.2662 51.222C57.2227 51.2656 57.171 51.3001 57.1142 51.3236C57.0573 51.3472 56.9964 51.3593 56.9349 51.3593C56.8734 51.3593 56.8124 51.3472 56.7556 51.3236C56.6987 51.3001 56.6471 51.2656 56.6036 51.222L54.6148 49.2341C54.5713 49.1906 54.5367 49.1389 54.5131 49.0821C54.4896 49.0253 54.4774 48.9643 54.4774 48.9028C54.4774 48.8412 54.4896 48.7803 54.5131 48.7235C54.5367 48.6666 54.5713 48.615 54.6148 48.5715L55.2363 47.95C55.111 47.6293 55.022 47.2956 54.9707 46.9551L54.121 46.7281C54.0009 46.6957 53.8986 46.617 53.8365 46.5092C53.7744 46.4015 53.7576 46.2735 53.7897 46.1533L54.5168 43.4379C54.5846 43.1898 54.839 43.0443 55.0906 43.1064L55.9272 43.3307C56.0337 43.1934 56.1483 43.0626 56.2704 42.939C56.3913 42.8191 56.5212 42.7046 56.664 42.593L56.4407 41.7583C56.4246 41.6988 56.4204 41.6368 56.4284 41.5757C56.4363 41.5146 56.4564 41.4556 56.4872 41.4023C56.5493 41.2948 56.6513 41.2162 56.7711 41.1836L59.4865 40.4551C59.6092 40.4248 59.7346 40.4395 59.8427 40.5027C59.8961 40.5333 59.9429 40.5743 59.9805 40.6231C60.018 40.672 60.0455 40.7278 60.0613 40.7873L60.2891 41.6375C60.6295 41.6888 60.9632 41.7775 61.2841 41.902L61.9046 41.2815C62.0804 41.1057 62.3915 41.1057 62.5672 41.2815L64.5551 43.2693C64.5987 43.3128 64.6332 43.3645 64.6568 43.4213C64.6804 43.4782 64.6925 43.5391 64.6925 43.6006C64.6925 43.6622 64.6804 43.7231 64.6568 43.7799C64.6332 43.8368 64.5987 43.8884 64.5551 43.9319L63.9345 44.5535C64.0589 44.8741 64.1476 45.2074 64.1991 45.5473L65.0485 45.7743C65.1685 45.8068 65.2708 45.8856 65.3329 45.9933C65.395 46.101 65.4118 46.229 65.3798 46.3491L64.6522 49.0638C64.6362 49.1232 64.6086 49.1788 64.5711 49.2275C64.5335 49.2761 64.4867 49.3169 64.4334 49.3475C64.3257 49.4099 64.1976 49.427 64.0774 49.3951L63.2445 49.1708C63.1377 49.3095 63.0221 49.4412 62.8986 49.5652C62.7749 49.6883 62.6438 49.8035 62.5059 49.9102L62.7302 50.744C62.7623 50.8642 62.7455 50.9922 62.6834 51.0999C62.6213 51.2076 62.519 51.2863 62.3989 51.3187L59.6833 52.0473C59.6436 52.0576 59.6027 52.0629 59.5616 52.0631ZM57.7797 49.5773C57.8474 49.5773 57.9161 49.592 57.981 49.6222C58.3916 49.8174 58.8347 49.9353 59.288 49.97C59.3846 49.9775 59.4764 50.0147 59.551 50.0764C59.6255 50.1382 59.6792 50.2215 59.7045 50.315L59.8931 51.0206L61.7032 50.5347L61.5175 49.8437C61.4926 49.7503 61.4971 49.6515 61.5303 49.5608C61.5636 49.4701 61.6239 49.3918 61.7032 49.3366C61.922 49.1855 62.0914 49.0474 62.236 48.9028C62.3825 48.7563 62.5197 48.5871 62.6707 48.3692C62.7834 48.2054 62.9847 48.134 63.1778 48.1825L63.8679 48.3683L64.3531 46.5588L63.6482 46.3704C63.5549 46.3451 63.4716 46.2917 63.4098 46.2173C63.3481 46.1429 63.3108 46.0512 63.3032 45.9548C63.2679 45.5015 63.1497 45.0585 62.9545 44.6478C62.9133 44.5603 62.9 44.4622 62.9166 44.3669C62.9331 44.2716 62.9786 44.1837 63.0469 44.1152L63.5614 43.6007L62.236 42.2755L61.7215 42.7898C61.5816 42.9298 61.3675 42.9683 61.1889 42.8813C60.7816 42.6874 60.3414 42.5702 59.8811 42.5335C59.7845 42.526 59.6927 42.4886 59.6182 42.4267C59.5438 42.3647 59.4904 42.2812 59.4654 42.1876L59.277 41.482L57.4667 41.968L57.6525 42.6609C57.678 42.7548 57.6735 42.8543 57.6397 42.9455C57.6059 43.0367 57.5445 43.1151 57.464 43.1697C57.257 43.3107 57.0832 43.4526 56.9331 43.6018C56.7868 43.7492 56.6494 43.9175 56.502 44.1317C56.3895 44.2946 56.1871 44.3679 55.995 44.3193L55.3013 44.1336L54.8161 45.9439L55.5217 46.1325C55.6151 46.1577 55.6983 46.2111 55.7601 46.2855C55.8218 46.3599 55.8591 46.4515 55.8667 46.5479C55.9019 47.0016 56.0201 47.4449 56.2155 47.8558C56.2567 47.9433 56.2699 48.0414 56.2534 48.1367C56.2369 48.232 56.1914 48.3199 56.1231 48.3884L55.6087 48.9028L56.9348 50.2282L57.4483 49.7147C57.4918 49.6711 57.5435 49.6366 57.6003 49.613C57.6572 49.5894 57.7181 49.5773 57.7797 49.5773Z" fill="white"/>
<path d="M59.5845 48.5943C58.2923 48.5943 57.2415 47.5436 57.2415 46.2512C57.2415 44.9589 58.2923 43.9082 59.5845 43.9082C60.8768 43.9082 61.9275 44.9589 61.9275 46.2512C61.9275 47.5436 60.8768 48.5943 59.5845 48.5943ZM59.5845 44.8455C58.8093 44.8455 58.1787 45.4761 58.1787 46.2512C58.1787 47.0264 58.8093 47.657 59.5845 47.657C60.3597 47.657 60.9903 47.0264 60.9903 46.2512C60.9903 45.4761 60.3597 44.8455 59.5845 44.8455Z" fill="white"/>
</g>
<defs>
<clipPath id="clip0_45_88">
<rect width="60" height="60" fill="white" transform="translate(23.5 20)"/>
</clipPath>
</defs>
</svg>
