<svg width="103" height="103" viewBox="0 0 103 103" fill="none" xmlns="http://www.w3.org/2000/svg">
<rect width="103" height="103" rx="51.5" fill="#3B82F6"/>
<g clip-path="url(#clip0_45_65)">
<path d="M45.9138 26.4704V29.0507H39.3159V21.0586H45.9138V23.8863H42.1436V26.4704H45.9138ZM52.6962 23.8863H55.332V21.0586H48.7334C48.7334 21.0586 48.7334 22.478 48.7334 23.8863C49.6162 24.7691 50.0765 25.1917 51.3533 26.4684C50.6069 26.4684 48.7334 26.4709 48.7334 26.4709V29.0507H55.332V26.4704L52.6962 23.8863ZM62.0484 23.8863H64.6839V21.0586H58.0856C58.0856 21.0586 58.0856 22.478 58.0856 23.8863C58.9681 24.7691 59.4287 25.1917 60.7053 26.4684C59.9594 26.4684 58.0856 26.4709 58.0856 26.4709V29.0507H64.684V26.4704L62.0484 23.8863ZM73.3744 32.8489L69.3663 76.2653L51.9999 80.9411L34.6332 76.2653L30.6256 32.8489H73.3744ZM65.2981 41.6769H51.9842H38.435L39.0829 46.9198H51.9842H52.7089L51.9842 47.2214L39.5545 52.3984L39.9667 57.523L51.9842 57.562L58.4252 57.5825L58.0126 64.4159L51.9842 66.1132V66.1078L51.9347 66.1214L46.1124 64.6516L45.7591 60.41H45.7399H40.3393H40.3203L41.0272 68.5986L51.9842 71.8388V71.8329L52.0039 71.8388L62.9023 68.6576L64.3164 52.3985H51.9842H51.9537L51.9842 52.3854L64.7677 46.9199L65.2981 41.6769Z" fill="white"/>
</g>
<defs>
<clipPath id="clip0_45_65">
<rect width="60" height="60" fill="white" transform="translate(21.5 21.5)"/>
</clipPath>
</defs>
</svg>
