<svg width="103" height="103" viewBox="0 0 103 103" fill="none" xmlns="http://www.w3.org/2000/svg">
<rect width="103" height="103" rx="51.5" fill="#3B82F6"/>
<path d="M76.0075 47.1051C75.8725 46.9976 74.605 46.0426 71.9375 46.0426C71.2329 46.045 70.5297 46.1052 69.835 46.2226C69.3175 42.6801 66.39 40.9551 66.26 40.8776L65.5425 40.4651L65.07 41.1451C64.4796 42.0592 64.0485 43.0668 63.795 44.1251C63.3175 46.1476 63.6075 48.0451 64.635 49.6701C63.395 50.3601 61.405 50.5301 61.0025 50.5451H28.065C27.6517 50.5457 27.2554 50.7099 26.9626 51.0017C26.6699 51.2935 26.5045 51.6893 26.5025 52.1026C26.4644 54.9877 26.9532 57.8555 27.945 60.5651C29.08 63.5401 30.7675 65.7326 32.9625 67.0726C35.4225 68.5801 39.4225 69.4401 43.9525 69.4401C46 69.4476 48.0425 69.2601 50.055 68.8876C52.8523 68.3728 55.5442 67.3952 58.02 65.9951C60.0596 64.8142 61.8949 63.3115 63.455 61.5451C66.065 58.5901 67.62 55.3026 68.775 52.3776H69.235C72.0925 52.3776 73.85 51.2351 74.8175 50.2751C75.4625 49.6651 75.965 48.9201 76.29 48.0951L76.5 47.4951L76.0075 47.1051Z" fill="white"/>
<path d="M31.1175 49.5776H35.53C35.6321 49.5776 35.73 49.537 35.8022 49.4648C35.8744 49.3926 35.915 49.2947 35.915 49.1926V45.2626C35.9153 45.212 35.9057 45.1619 35.8866 45.115C35.8676 45.0682 35.8395 45.0256 35.804 44.9896C35.7685 44.9536 35.7262 44.925 35.6796 44.9053C35.633 44.8857 35.583 44.8754 35.5325 44.8751H31.1175C31.0154 44.8751 30.9174 44.9156 30.8452 44.9878C30.773 45.06 30.7325 45.1579 30.7325 45.2601V49.1951C30.7325 49.4051 30.905 49.5776 31.1175 49.5776ZM37.2 49.5776H41.6125C41.7146 49.5776 41.8125 49.537 41.8847 49.4648C41.9569 49.3926 41.9975 49.2947 41.9975 49.1926V45.2626C41.9981 45.2119 41.9887 45.1616 41.9698 45.1146C41.9509 45.0677 41.9228 45.0249 41.8872 44.9889C41.8517 44.9528 41.8093 44.9242 41.7625 44.9046C41.7158 44.8851 41.6656 44.8751 41.615 44.8751H37.2C37.149 44.8747 37.0985 44.8845 37.0513 44.9039C37.0041 44.9232 36.9613 44.9518 36.9252 44.9878C36.8892 45.0239 36.8607 45.0667 36.8413 45.1139C36.8219 45.161 36.8122 45.2116 36.8125 45.2626V49.1951C36.815 49.4051 36.9875 49.5776 37.2 49.5776ZM43.375 49.5776H47.7875C47.8896 49.5776 47.9875 49.537 48.0597 49.4648C48.1319 49.3926 48.1725 49.2947 48.1725 49.1926V45.2626C48.1728 45.212 48.1632 45.1619 48.1441 45.115C48.1251 45.0682 48.097 45.0256 48.0615 44.9896C48.026 44.9536 47.9837 44.925 47.9371 44.9053C47.8905 44.8857 47.8405 44.8754 47.79 44.8751H43.375C43.2729 44.8751 43.1749 44.9156 43.1027 44.9878C43.0305 45.06 42.99 45.1579 42.99 45.2601V49.1951C42.99 49.4051 43.1625 49.5776 43.375 49.5776ZM49.475 49.5776H53.8875C53.9898 49.5776 54.088 49.5371 54.1606 49.4649C54.2332 49.3928 54.2743 49.2949 54.275 49.1926V45.2626C54.2753 45.2116 54.2655 45.161 54.2462 45.1139C54.2268 45.0667 54.1983 45.0239 54.1622 44.9878C54.1262 44.9518 54.0833 44.9232 54.0362 44.9039C53.989 44.8845 53.9385 44.8747 53.8875 44.8751H49.475C49.3729 44.8751 49.2749 44.9156 49.2027 44.9878C49.1305 45.06 49.09 45.1579 49.09 45.2601V49.1951C49.09 49.4051 49.2625 49.5776 49.475 49.5776ZM37.2 43.9226H41.6125C41.825 43.9226 41.9975 43.7476 41.9975 43.5351V39.6051C41.9975 39.503 41.9569 39.405 41.8847 39.3328C41.8125 39.2606 41.7146 39.2201 41.6125 39.2201H37.2C37.0976 39.2201 36.9995 39.2605 36.9269 39.3327C36.8543 39.4048 36.8131 39.5027 36.8125 39.6051V43.5376C36.815 43.7476 36.9875 43.9226 37.2 43.9226ZM43.375 43.9226H47.7875C48 43.9226 48.1725 43.7476 48.1725 43.5351V39.6051C48.1725 39.503 48.1319 39.405 48.0597 39.3328C47.9875 39.2606 47.8896 39.2201 47.7875 39.2201H43.375C43.2729 39.2201 43.1749 39.2606 43.1027 39.3328C43.0305 39.405 42.99 39.503 42.99 39.6051V43.5376C42.99 43.7476 43.1625 43.9226 43.375 43.9226ZM49.475 43.9226H53.8875C54.1 43.9226 54.275 43.7476 54.275 43.5351V39.6051C54.2743 39.5027 54.2332 39.4048 54.1606 39.3327C54.088 39.2605 53.9898 39.2201 53.8875 39.2201H49.475C49.3729 39.2201 49.2749 39.2606 49.2027 39.3328C49.1305 39.405 49.09 39.503 49.09 39.6051V43.5376C49.09 43.7476 49.2625 43.9226 49.475 43.9226ZM49.475 38.2651H53.8875C53.9898 38.2651 54.088 38.2246 54.1606 38.1524C54.2332 38.0803 54.2743 37.9824 54.275 37.8801V33.9451C54.2743 33.8427 54.2332 33.7448 54.1606 33.6727C54.088 33.6005 53.9898 33.5601 53.8875 33.5601H49.475C49.3729 33.5601 49.2749 33.6006 49.2027 33.6728C49.1305 33.745 49.09 33.843 49.09 33.9451V37.8776C49.09 38.0926 49.2625 38.2651 49.475 38.2651ZM55.6325 49.5776H60.045C60.1473 49.5776 60.2455 49.5371 60.3181 49.4649C60.3907 49.3928 60.4318 49.2949 60.4325 49.1926V45.2626C60.4328 45.2116 60.423 45.161 60.4037 45.1139C60.3843 45.0667 60.3558 45.0239 60.3197 44.9878C60.2837 44.9518 60.2408 44.9232 60.1937 44.9039C60.1465 44.8845 60.096 44.8747 60.045 44.8751H55.6325C55.5304 44.8751 55.4324 44.9156 55.3602 44.9878C55.288 45.06 55.2475 45.1579 55.2475 45.2601V49.1951C55.2475 49.2455 55.2575 49.2954 55.2768 49.342C55.2962 49.3886 55.3246 49.4309 55.3604 49.4664C55.3962 49.502 55.4386 49.5301 55.4853 49.5492C55.532 49.5682 55.582 49.5779 55.6325 49.5776Z" fill="white"/>
</svg>
