<svg width="16" height="16" viewBox="0 0 16 16" fill="none" xmlns="http://www.w3.org/2000/svg">
<path d="M6.42148 13.7122C4.13548 14.4835 2.23082 13.7122 1.08815 11.3335" stroke="white" stroke-width="1.5" stroke-linecap="round" stroke-linejoin="round"/>
<path d="M6.42148 14.6667V12.5054C6.42148 12.1067 6.54415 11.76 6.74148 11.4467C6.87748 11.232 6.78415 10.9267 6.53948 10.86C4.51082 10.3014 3.08815 9.40468 3.08815 6.43002C3.08815 5.65669 3.34148 4.93002 3.78682 4.29669C3.89748 4.13935 3.95348 4.06068 3.96682 3.99002C3.98015 3.91802 3.95682 3.82535 3.91015 3.63868C3.72148 2.88135 3.73415 2.07669 4.01682 1.35202C4.01682 1.35202 4.60148 1.16068 5.93282 1.99202C6.23682 2.18202 6.38882 2.27735 6.52282 2.29868C6.65682 2.32002 6.83548 2.27535 7.19282 2.18602C7.70373 2.05935 8.22844 1.99687 8.75482 2.00002C9.28118 1.99777 9.80581 2.06047 10.3168 2.18668C10.6741 2.27602 10.8535 2.32002 10.9875 2.29935C11.1208 2.27802 11.2728 2.18268 11.5768 1.99269C12.9081 1.16135 13.4928 1.35269 13.4928 1.35269C13.7755 2.07735 13.7881 2.88202 13.5995 3.63935C13.5528 3.82602 13.5301 3.91935 13.5435 3.99002C13.5568 4.06068 13.6121 4.14002 13.7228 4.29735C14.1681 4.93068 14.4215 5.65735 14.4215 6.43068C14.4215 9.40535 12.9988 10.302 10.9701 10.8594C10.7255 10.9267 10.6321 11.232 10.7681 11.446C10.9655 11.7594 11.0881 12.106 11.0881 12.5054V14.6667" stroke="white" stroke-width="1.5" stroke-linecap="round" stroke-linejoin="round"/>
</svg>
