<svg width="65" height="65" viewBox="0 0 65 65" fill="none" xmlns="http://www.w3.org/2000/svg">
<rect width="65" height="65" rx="4" fill="#3B82F6"/>
<path d="M32 18.3333C30.1396 18.3333 28.2974 18.6997 26.5786 19.4117C24.8599 20.1236 23.2981 21.1671 21.9826 22.4826C19.3259 25.1394 17.8333 28.7427 17.8333 32.5C17.8333 38.7616 21.8992 44.0741 27.5233 45.9583C28.2317 46.0716 28.4583 45.6325 28.4583 45.25V42.8558C24.5342 43.7058 23.6983 40.9575 23.6983 40.9575C23.0467 39.3141 22.1258 38.875 22.1258 38.875C20.8367 37.9966 22.225 38.025 22.225 38.025C23.6417 38.1241 24.3925 39.4841 24.3925 39.4841C25.625 41.6375 27.7075 41 28.515 40.66C28.6425 39.7391 29.0108 39.1158 29.4075 38.7616C26.2625 38.4075 22.9617 37.1891 22.9617 31.7916C22.9617 30.2191 23.5 28.9583 24.4208 27.9525C24.2792 27.5983 23.7833 26.125 24.5625 24.2125C24.5625 24.2125 25.7525 23.83 28.4583 25.6575C29.5775 25.3458 30.7958 25.19 32 25.19C33.2042 25.19 34.4225 25.3458 35.5417 25.6575C38.2475 23.83 39.4375 24.2125 39.4375 24.2125C40.2167 26.125 39.7208 27.5983 39.5792 27.9525C40.5 28.9583 41.0383 30.2191 41.0383 31.7916C41.0383 37.2033 37.7233 38.3933 34.5642 38.7475C35.0742 39.1866 35.5417 40.0508 35.5417 41.3683V45.25C35.5417 45.6325 35.7683 46.0858 36.4908 45.9583C42.115 44.06 46.1667 38.7616 46.1667 32.5C46.1667 30.6396 45.8002 28.7974 45.0883 27.0786C44.3763 25.3599 43.3328 23.7981 42.0173 22.4826C40.7018 21.1671 39.1401 20.1236 37.4213 19.4117C35.7026 18.6997 33.8604 18.3333 32 18.3333Z" fill="white"/>
</svg>
