<svg width="103" height="103" viewBox="0 0 103 103" fill="none" xmlns="http://www.w3.org/2000/svg">
<rect width="103" height="103" rx="51.5" fill="#3B82F6"/>
<g clip-path="url(#clip0_45_61)">
<path d="M34.2347 21.5586H36.9338V24.2253H39.4028V21.5586H42.1021V29.6339H39.403V26.9296H36.934V29.6339H34.2349V21.5586H34.2347ZM45.6513 24.2366H43.2754V21.5586H50.7278V24.2366H48.3506V29.6339H45.6516V24.2366H45.6513ZM51.9104 21.5586H54.7253L56.4563 24.3961L58.1858 21.5586H61.001V29.6339H58.313V25.6314L56.4562 28.5025H56.4099L54.5517 25.6314V29.6339H51.9104V21.5586ZM62.3446 21.5586H65.0444V26.9648H68.8402V29.6339H62.3446V21.5586ZM30.2876 33.3271L34.1485 76.6318L51.4739 81.4412L68.8474 76.6249L72.7124 33.327L30.2876 33.3271ZM64.6589 43.6038L64.4172 46.2964L64.311 47.4903H64.2935H51.5001H51.4815H43.9867L44.4721 52.9286H51.4815H51.5001H62.3962H63.8275L63.6979 54.355L62.4498 68.3378L62.3699 69.2346L51.5001 72.2473V72.2483L51.4757 72.2552L40.5961 69.2348L39.8519 60.8956H42.3093H45.1835L45.5617 65.1315L51.4766 66.729L51.4815 66.7275V66.727L57.4055 65.1286L58.0215 58.2402H51.5001H51.4815H39.6147L38.3093 43.6038L38.1822 42.1791H51.4815H51.5001H64.7861L64.6589 43.6038Z" fill="white"/>
</g>
<defs>
<clipPath id="clip0_45_61">
<rect width="60" height="60" fill="white" transform="translate(21.5 21.5)"/>
</clipPath>
</defs>
</svg>
