<svg width="100" height="100" viewBox="0 0 100 100" fill="none" xmlns="http://www.w3.org/2000/svg">
<rect width="100" height="100" rx="50" fill="#3B82F6"/>
<path d="M80 44.9442C80 41.0723 77.9634 37.4698 74.2654 34.8006C70.7357 32.2529 66.0716 30.8499 61.1322 30.8499C56.1925 30.8501 51.5282 32.2529 47.9987 34.8006C47.0315 35.4989 46.1808 36.2621 45.4476 37.0761C43.3689 36.5021 41.1495 36.1978 38.868 36.1978C33.9286 36.1978 29.2645 37.6009 25.7348 40.1486C22.0366 42.8178 20 46.4198 20 50.2917C20 54.1474 22.0678 57.7831 25.7191 60.4231L24.0048 67.0098C23.8316 67.6747 24.0736 68.3787 24.6187 68.797C24.9237 69.0309 25.2905 69.1501 25.6596 69.1501C25.9495 69.1501 26.2409 69.0765 26.5039 68.9269L35.0121 64.0926C36.2761 64.2873 37.5702 64.3857 38.8678 64.3857C43.8075 64.3857 48.4718 62.9829 52.0013 60.4354C52.9678 59.7379 53.8181 58.9756 54.5494 58.1618C56.6291 58.7351 58.8501 59.038 61.132 59.038C62.4284 59.038 63.7223 58.9396 64.9877 58.7449L73.4963 63.5792C73.7594 63.7288 74.0507 63.8024 74.3407 63.8024C74.7093 63.8024 75.0765 63.6834 75.3815 63.4491C75.9268 63.031 76.1684 62.3268 75.9952 61.6618L74.2809 55.0754C77.9322 52.4352 80 48.7994 80 44.9442ZM71.4187 52.8804C70.7829 53.2754 70.4779 54.0386 70.6666 54.7633L71.6671 58.6067L66.1498 55.472C65.8909 55.3248 65.5995 55.2486 65.3052 55.2486C65.2043 55.2486 65.1026 55.2575 65.0021 55.2758C63.7407 55.5028 62.4386 55.6182 61.1322 55.6182C52.6136 55.6182 45.6833 50.8296 45.6833 44.9439C45.6833 39.058 52.6136 34.2693 61.1322 34.269C69.6506 34.269 76.5808 39.0578 76.5808 44.9439C76.5806 47.9491 74.699 50.842 71.4187 52.8804Z" fill="white"/>
<path d="M52.6936 43.3813C51.5976 43.3813 50.7058 44.2731 50.7058 45.3692C50.7058 46.4652 51.5976 47.357 52.6936 47.357C53.7901 47.357 54.6819 46.4652 54.6819 45.3692C54.6819 44.2731 53.7901 43.3813 52.6936 43.3813Z" fill="white"/>
<path d="M58.3194 43.3813C57.2231 43.3813 56.3314 44.2731 56.3314 45.3692C56.3314 46.4652 57.2231 47.357 58.3194 47.357C59.4157 47.357 60.3074 46.4652 60.3074 45.3692C60.3072 44.2731 59.4154 43.3813 58.3194 43.3813Z" fill="white"/>
<path d="M63.9448 43.3813C62.8485 43.3813 61.9565 44.2731 61.9565 45.3692C61.9565 46.4654 62.8483 47.3572 63.9448 47.3572C65.0408 47.3572 65.9324 46.4654 65.9324 45.3692C65.9324 44.2731 65.0408 43.3813 63.9448 43.3813Z" fill="white"/>
<path d="M69.5704 43.3813C68.4741 43.3813 67.5823 44.2731 67.5823 45.3692C67.5823 46.4654 68.4741 47.3572 69.5704 47.3572C70.6664 47.3572 71.558 46.4654 71.558 45.3692C71.558 44.2731 70.6664 43.3813 69.5704 43.3813Z" fill="white"/>
</svg>
