<svg width="65" height="65" viewBox="0 0 65 65" fill="none" xmlns="http://www.w3.org/2000/svg">
<rect width="65" height="65" rx="4" fill="#3B82F6"/>
<path d="M25.675 16.25H39.325C44.525 16.25 48.75 20.475 48.75 25.675V39.325C48.75 41.8247 47.757 44.222 45.9895 45.9895C44.222 47.757 41.8247 48.75 39.325 48.75H25.675C20.475 48.75 16.25 44.525 16.25 39.325V25.675C16.25 23.1753 17.243 20.778 19.0105 19.0105C20.778 17.243 23.1753 16.25 25.675 16.25ZM25.35 19.5C23.7985 19.5 22.3105 20.1163 21.2134 21.2134C20.1163 22.3105 19.5 23.7985 19.5 25.35V39.65C19.5 42.8837 22.1163 45.5 25.35 45.5H39.65C41.2015 45.5 42.6895 44.8837 43.7866 43.7866C44.8837 42.6895 45.5 41.2015 45.5 39.65V25.35C45.5 22.1163 42.8837 19.5 39.65 19.5H25.35ZM41.0312 21.9375C41.57 21.9375 42.0866 22.1515 42.4676 22.5324C42.8485 22.9134 43.0625 23.43 43.0625 23.9688C43.0625 24.5075 42.8485 25.0241 42.4676 25.4051C42.0866 25.786 41.57 26 41.0312 26C40.4925 26 39.9759 25.786 39.5949 25.4051C39.214 25.0241 39 24.5075 39 23.9688C39 23.43 39.214 22.9134 39.5949 22.5324C39.9759 22.1515 40.4925 21.9375 41.0312 21.9375ZM32.5 24.375C34.6549 24.375 36.7215 25.231 38.2452 26.7548C39.769 28.2785 40.625 30.3451 40.625 32.5C40.625 34.6549 39.769 36.7215 38.2452 38.2452C36.7215 39.769 34.6549 40.625 32.5 40.625C30.3451 40.625 28.2785 39.769 26.7548 38.2452C25.231 36.7215 24.375 34.6549 24.375 32.5C24.375 30.3451 25.231 28.2785 26.7548 26.7548C28.2785 25.231 30.3451 24.375 32.5 24.375ZM32.5 27.625C31.2071 27.625 29.9671 28.1386 29.0529 29.0529C28.1386 29.9671 27.625 31.2071 27.625 32.5C27.625 33.7929 28.1386 35.0329 29.0529 35.9471C29.9671 36.8614 31.2071 37.375 32.5 37.375C33.7929 37.375 35.0329 36.8614 35.9471 35.9471C36.8614 35.0329 37.375 33.7929 37.375 32.5C37.375 31.2071 36.8614 29.9671 35.9471 29.0529C35.0329 28.1386 33.7929 27.625 32.5 27.625Z" fill="white"/>
</svg>
