<svg width="103" height="103" viewBox="0 0 103 103" fill="none" xmlns="http://www.w3.org/2000/svg">
<rect width="103" height="103" rx="51.5" fill="#3B82F6"/>
<g clip-path="url(#clip0_45_32)">
<path fill-rule="evenodd" clip-rule="evenodd" d="M45.1891 53.6098C45.1891 53.6098 43.3739 54.6661 46.4824 55.0229C50.2493 55.4531 52.1734 55.3912 56.3232 54.6062C56.3232 54.6062 57.4158 55.2902 58.9409 55.8821C49.6354 59.8694 37.8811 55.6514 45.1891 53.6098ZM44.0516 48.4065C44.0516 48.4065 42.0152 49.9138 45.1264 50.2356C49.1505 50.6511 52.3268 50.685 57.8266 49.6268C57.8266 49.6268 58.586 50.3976 59.7811 50.8187C48.5319 54.109 36.0032 51.0777 44.0516 48.4065Z" fill="white"/>
<path fill-rule="evenodd" clip-rule="evenodd" d="M53.6366 39.5788C55.9305 42.2193 53.0353 44.594 53.0353 44.594C53.0353 44.594 58.8573 41.5892 56.1833 37.825C53.6867 34.3163 51.7717 32.5732 62.1377 26.562C62.1377 26.562 45.8657 30.6243 53.6366 39.5788Z" fill="white"/>
<path fill-rule="evenodd" clip-rule="evenodd" d="M65.9433 57.4588C65.9433 57.4588 67.287 58.5667 64.4632 59.4235C59.0935 61.0499 42.1098 61.5404 37.3922 59.4881C35.6976 58.7501 38.8771 57.7269 39.8774 57.5108C40.9207 57.2853 41.516 57.3263 41.516 57.3263C39.6302 55.9984 29.3264 59.9345 36.2831 61.0637C55.2528 64.1395 70.8631 59.679 65.9433 57.4588ZM46.0625 43.0147C46.0625 43.0147 37.4246 45.0669 43.004 45.8129C45.3607 46.1279 50.055 46.0554 54.4311 45.6883C58.0064 45.3883 61.5952 44.7464 61.5952 44.7464C61.5952 44.7464 60.3354 45.2869 59.4227 45.9091C50.6495 48.2168 33.7041 47.142 38.583 44.783C42.7079 42.7876 46.0625 43.0147 46.0625 43.0147ZM61.5593 51.6759C70.4767 47.0431 66.3537 42.5901 63.4751 43.1902C62.7713 43.3372 62.4555 43.4642 62.4555 43.4642C62.4555 43.4642 62.7181 43.0533 63.2172 42.8767C68.9111 40.8757 73.2892 48.7799 61.3815 51.9101C61.3811 51.9101 61.5183 51.7863 61.5593 51.6759Z" fill="white"/>
<path fill-rule="evenodd" clip-rule="evenodd" d="M56.1833 16.853C56.1833 16.853 61.1209 21.7938 51.4988 29.3888C43.7824 35.4836 49.7395 38.9576 51.4965 42.9284C46.9914 38.8645 43.6869 35.2864 45.9036 31.9571C49.158 27.07 58.1756 24.7 56.1833 16.853Z" fill="white"/>
<path fill-rule="evenodd" clip-rule="evenodd" d="M46.9398 64.2336C55.498 64.7808 68.643 63.9296 68.9548 59.8792C68.9548 59.8792 68.3563 61.4145 61.881 62.6324C54.5754 64.0077 45.5633 63.8476 40.22 62.9656C40.22 62.9656 41.3149 63.8716 46.9398 64.2336Z" fill="white"/>
<path fill-rule="evenodd" clip-rule="evenodd" d="M68.5593 71.4972H68.2991V71.3513H69.0013V71.4972H68.7411V72.2258H68.5593V71.4972ZM69.9606 71.5334H69.9575L69.6988 72.2254H69.5801L69.3231 71.5334H69.3199V72.2254H69.1472V71.3509H69.4007L69.6389 71.9695L69.877 71.3509H70.1282V72.2254H69.961L69.9606 71.5334ZM45.5373 79.7081C44.7302 80.4075 43.877 80.801 43.1109 80.801C42.0195 80.801 41.4273 80.1453 41.4273 79.0962C41.4273 77.9602 42.0613 77.1291 44.5989 77.1291H45.5369L45.5373 79.7081ZM47.765 82.2212V74.4413C47.765 72.4529 46.631 71.1407 43.8975 71.1407C42.3026 71.1407 40.9045 71.5346 39.7678 72.0366L40.095 73.4146C40.9904 73.0857 42.148 72.781 43.2844 72.781C44.8591 72.781 45.5369 73.4146 45.5369 74.7263V75.7101H44.7499C40.9246 75.7101 39.1984 77.1941 39.1984 79.4254C39.1984 81.3479 40.3359 82.4408 42.4773 82.4408C43.8537 82.4408 44.882 81.8727 45.8421 81.0411L46.0167 82.2212H47.765ZM55.1999 82.2212H52.4222L49.0775 71.3387H51.5039L53.5798 78.0261L54.0419 80.0353C55.0891 77.1291 55.8323 74.1787 56.2042 71.3387H58.5635C57.9319 74.9219 56.794 78.856 55.1999 82.2212ZM65.8601 79.7081C65.0506 80.4075 64.1974 80.801 63.4329 80.801C62.3415 80.801 61.7501 80.1453 61.7501 79.0962C61.7501 77.9602 62.3845 77.1291 64.9205 77.1291H65.8601V79.7081ZM68.0886 82.2212V74.4413C68.0886 72.4529 66.9511 71.1407 64.2203 71.1407C62.6238 71.1407 61.2261 71.5346 60.0894 72.0366L60.4166 73.4146C61.3121 73.0857 62.472 72.781 63.6087 72.781C65.1811 72.781 65.8597 73.4146 65.8597 74.7263V75.7101H65.0727C61.247 75.7101 59.522 77.1941 59.522 79.4254C59.522 81.3479 60.6572 82.4408 62.7989 82.4408C64.1765 82.4408 65.2032 81.8727 66.1657 81.0411L66.3411 82.2212H68.0886ZM36.7559 84.0704C36.1211 84.9981 35.0944 85.7327 33.9718 86.1471L32.8718 84.8515C33.727 84.4126 34.4596 83.7041 34.8006 83.0449C35.0944 82.4574 35.217 81.702 35.217 79.8938V67.468H37.5846V79.7223C37.5846 82.1408 37.3914 83.1182 36.7559 84.0704Z" fill="white"/>
</g>
<defs>
<clipPath id="clip0_45_32">
<rect width="76" height="76" fill="white" transform="translate(13.5 13.5)"/>
</clipPath>
</defs>
</svg>
