<svg width="103" height="103" viewBox="0 0 103 103" fill="none" xmlns="http://www.w3.org/2000/svg">
<rect width="103" height="103" rx="51.5" fill="#3B82F6"/>
<g clip-path="url(#clip0_45_57)">
<path d="M21.72 23.2563V81.9363H80.4V23.2563H21.72ZM52.3462 73.4538C51.4818 75.2107 49.83 76.3657 47.9175 76.9226C44.9775 77.5976 42.1668 77.2132 40.0743 75.957C38.6737 75.0982 37.5806 73.7763 36.84 72.2538C38.3287 71.3445 39.8137 70.4295 41.3025 69.5201C41.3418 69.537 41.4581 69.7488 41.6156 70.0226C42.1837 70.977 42.675 71.652 43.6406 72.1245C44.5893 72.447 46.6687 72.6551 47.4731 70.9863C47.9643 70.1388 47.8068 67.3563 47.8068 64.3395C47.8068 59.5976 47.8293 54.9345 47.8293 50.1345H53.3175C53.3175 55.1745 53.3456 60.2276 53.3175 65.2601C53.3287 68.3445 53.5968 71.1495 52.3462 73.4538ZM75.1162 71.9032C73.2093 78.4301 62.5706 78.642 58.3218 74.3295C57.4237 73.3151 56.8612 72.7845 56.325 71.6126C58.5843 70.3132 58.5843 70.3132 60.7818 69.042C61.9762 70.8776 63.0806 71.8863 65.0662 72.2988C67.7606 72.627 70.4718 71.7026 69.8643 68.8413C69.24 66.5032 64.3481 65.9351 61.0181 63.4357C57.6375 61.1651 56.8462 55.6488 59.6231 52.497C60.5493 51.3307 62.1281 50.4607 63.7837 50.0426C64.3575 49.9695 64.9387 49.8926 65.5125 49.8195C68.8312 49.752 70.9068 50.6276 72.4293 52.3301C72.8531 52.7595 73.1981 53.2226 73.8468 54.2276C72.0787 55.3545 72.0843 55.3432 69.5512 56.9838C69.0093 55.8176 68.1131 55.0863 67.1643 54.7695C65.6925 54.3232 63.8343 54.8088 63.45 56.3651C63.3168 56.8451 63.345 57.2913 63.5568 58.0826C64.1531 59.4438 66.1556 60.0345 67.9518 60.8595C73.1231 62.9576 74.8687 65.2038 75.2981 67.8813C75.7106 70.1857 75.1968 71.6801 75.12 71.9032H75.1162Z" fill="white"/>
</g>
<defs>
<clipPath id="clip0_45_57">
<rect width="60" height="60" fill="white" transform="translate(21 21.5)"/>
</clipPath>
</defs>
</svg>
