<svg width="65" height="65" viewBox="0 0 65 65" fill="none" xmlns="http://www.w3.org/2000/svg">
<rect width="65" height="65" rx="4" fill="#3B82F6"/>
<path d="M21.3333 19.6685C21.3328 20.641 20.9461 21.5734 20.2581 22.2607C19.5701 22.948 18.6373 23.3338 17.6648 23.3333C16.6924 23.3328 15.7599 22.9461 15.0726 22.2581C14.3854 21.5701 13.9995 20.6373 14 19.6648C14.0005 18.6924 14.3873 17.7599 15.0752 17.0726C15.7632 16.3854 16.696 15.9995 17.6685 16C18.641 16.0005 19.5734 16.3873 20.2607 17.0752C20.948 17.7632 21.3338 18.696 21.3333 19.6685ZM21.4433 26.0485H14.11V49.0018H21.4433V26.0485ZM33.03 26.0485H25.7333V49.0018H32.9567V36.9568C32.9567 30.2468 41.7017 29.6235 41.7017 36.9568V49.0018H48.9433V34.4635C48.9433 23.1518 36 23.5735 32.9567 29.1285L33.03 26.0485Z" fill="white"/>
</svg>
