<svg width="100" height="100" viewBox="0 0 100 100" fill="none" xmlns="http://www.w3.org/2000/svg">
<rect width="100" height="100" rx="50" fill="#3B82F6"/>
<path d="M64.0735 46.825C65.7527 46.825 67.1189 45.4589 67.1189 43.7797V23.0454C67.1189 21.3662 65.7528 20 64.0735 20H53.7063C52.0271 20 50.6611 21.3662 50.6611 23.0454V29.3335C50.3912 29.3156 50.1153 29.4088 49.9089 29.6151C49.5294 29.9947 49.5294 30.6102 49.9089 30.9895L51.36 32.4405H48.4579V23.0454C48.4579 21.3662 47.0919 20 45.4126 20H35.0454C33.3662 20 32 21.3662 32 23.0454V43.7797C32 45.4589 33.3662 46.825 35.0454 46.825H39.2571V53.175H35.0454C33.3662 53.175 32 54.5411 32 56.2203V76.9546C32 78.6338 33.3662 80 35.0454 80H45.4126C47.0918 80 48.4579 78.6338 48.4579 76.9546V56.2203C48.4579 54.5411 47.0918 53.175 45.4126 53.175H41.2009V46.825H45.4126C47.0918 46.825 48.4579 45.4589 48.4579 43.7797V34.3844H51.3598L49.9088 35.8354C49.5293 36.215 49.5293 36.8305 49.9088 37.2098C50.0987 37.3995 50.3475 37.4946 50.5961 37.4946C50.6178 37.4946 50.6393 37.4929 50.6609 37.4914V43.7796C50.6609 45.4588 52.0271 46.8249 53.7063 46.8249H57.918V53.1748H53.7063C52.0271 53.1748 50.6609 54.541 50.6609 56.2202V76.9545C50.6609 78.6337 52.0271 79.9999 53.7063 79.9999H64.0735C65.7527 79.9999 67.1189 78.6337 67.1189 76.9545V56.2203C67.1189 54.5411 65.7527 53.175 64.0735 53.175H59.8618V46.825H64.0735ZM45.4126 55.1187C46.02 55.1187 46.5141 55.6128 46.5141 56.2203V76.9546C46.5141 77.562 46.02 78.0562 45.4126 78.0562H35.0454C34.438 78.0562 33.9438 77.562 33.9438 76.9546V56.2203C33.9438 55.6129 34.4379 55.1187 35.0454 55.1187H39.2571V59.0573L37.8062 57.6063C37.4265 57.2267 36.8111 57.2267 36.4316 57.6063C36.052 57.9859 36.052 58.6013 36.4316 58.9807L39.5417 62.0908C39.543 62.0921 39.5444 62.0932 39.5456 62.0943C39.5671 62.1155 39.5895 62.1359 39.613 62.1553C39.6239 62.1642 39.6354 62.172 39.6465 62.1805C39.6608 62.1911 39.6746 62.2021 39.6895 62.2121C39.7027 62.2209 39.7164 62.2286 39.73 62.2367C39.7436 62.2449 39.757 62.2535 39.7709 62.261C39.7848 62.2684 39.7992 62.2747 39.8135 62.2815C39.828 62.2884 39.8422 62.2957 39.8572 62.3016C39.871 62.3074 39.8853 62.312 39.8995 62.3171C39.9153 62.3228 39.9309 62.3288 39.947 62.3337C39.9613 62.338 39.9755 62.3411 39.99 62.3448C40.0062 62.3489 40.0225 62.3534 40.0391 62.3568C40.0558 62.3602 40.0726 62.3621 40.0895 62.3645C40.104 62.3666 40.1184 62.3693 40.133 62.3708C40.1649 62.3739 40.1969 62.3756 40.2289 62.3756C40.2609 62.3756 40.2929 62.3739 40.3248 62.3708C40.3395 62.3694 40.3538 62.3667 40.3684 62.3645C40.3852 62.362 40.4021 62.36 40.4187 62.3568C40.4355 62.3534 40.4516 62.3489 40.4679 62.3448C40.4823 62.3411 40.4966 62.3381 40.5109 62.3337C40.527 62.3288 40.5426 62.3228 40.5584 62.3171C40.5725 62.3121 40.5867 62.3074 40.6005 62.3016C40.6154 62.2954 40.6298 62.2882 40.6443 62.2812C40.6585 62.2746 40.6728 62.2682 40.6868 62.2609C40.7007 62.2534 40.7141 62.2448 40.7277 62.2366C40.7412 62.2284 40.755 62.2208 40.7682 62.212C40.783 62.2021 40.797 62.1911 40.8112 62.1804C40.8223 62.1719 40.8338 62.1642 40.8447 62.1553C40.8682 62.1361 40.8905 62.1158 40.9121 62.0943C40.9134 62.093 40.9148 62.092 40.916 62.0908L44.0261 58.9807C44.4057 58.6011 44.4057 57.9856 44.0261 57.6063C43.6464 57.2267 43.0311 57.2267 42.6515 57.6063L41.2006 59.0573V55.1187H45.4126ZM40.229 34.514C39.6216 34.514 39.1275 34.0198 39.1275 33.4125C39.1275 32.8051 39.6216 32.3109 40.229 32.3109C40.8364 32.3109 41.3306 32.805 41.3306 33.4125C41.3306 34.02 40.8364 34.514 40.229 34.514ZM46.5141 43.7797C46.5141 44.3871 46.02 44.8813 45.4126 44.8813H41.2009V36.298C42.0993 35.9945 42.8109 35.2829 43.1144 34.3844H46.514V43.7797H46.5141ZM46.5141 32.4406H43.1145C42.7079 31.2368 41.5685 30.3672 40.2291 30.3672C38.55 30.3672 37.1838 31.7334 37.1838 33.4126C37.1838 34.752 38.0533 35.8913 39.2572 36.298V44.8813H35.0455C34.4381 44.8813 33.9439 44.3871 33.9439 43.7797V23.0454C33.9439 22.438 34.438 21.9438 35.0455 21.9438H45.4127C46.0201 21.9438 46.5143 22.438 46.5143 23.0454V32.4406H46.5141ZM53.7064 44.8813C53.099 44.8813 52.6048 44.3871 52.6048 43.7797V35.8886L54.3937 34.0998C54.7733 33.7202 54.7733 33.1047 54.3937 32.7254L52.6048 30.9365V23.0454C52.6048 22.438 53.0989 21.9438 53.7064 21.9438H64.0736C64.681 21.9438 65.1752 22.438 65.1752 23.0454V43.7797C65.1752 44.3871 64.6811 44.8813 64.0736 44.8813H59.8619V36.298C61.0658 35.8913 61.9353 34.7519 61.9353 33.4126C61.9353 31.7334 60.5691 30.3672 58.89 30.3672C57.2108 30.3672 55.8446 31.7334 55.8446 33.4126C55.8446 34.752 56.7141 35.8913 57.918 36.298V44.8813H53.7064ZM64.0735 55.1187C64.6809 55.1187 65.1751 55.6128 65.1751 56.2203V76.9546C65.1751 77.562 64.681 78.0562 64.0735 78.0562H53.7063C53.0989 78.0562 52.6047 77.562 52.6047 76.9546V56.2203C52.6047 55.6129 53.0988 55.1187 53.7063 55.1187H57.918V59.0573L56.4671 57.6063C56.0874 57.2267 55.4721 57.2267 55.0926 57.6063C54.713 57.9859 54.713 58.6013 55.0926 58.9807L58.2028 62.0908C58.2041 62.0921 58.2055 62.0932 58.2066 62.0943C58.2282 62.1155 58.2506 62.1359 58.274 62.1553C58.2849 62.1642 58.2964 62.172 58.3075 62.1805C58.3218 62.1911 58.3357 62.2021 58.3505 62.2121C58.3638 62.2209 58.3775 62.2286 58.3911 62.2367C58.4047 62.2449 58.418 62.2535 58.432 62.261C58.4458 62.2684 58.4602 62.2747 58.4745 62.2815C58.4891 62.2884 58.5032 62.2957 58.5182 62.3016C58.5321 62.3074 58.5464 62.312 58.5605 62.3171C58.5764 62.3228 58.592 62.3288 58.608 62.3337C58.6223 62.338 58.6366 62.3411 58.651 62.3448C58.6673 62.3489 58.6836 62.3534 58.7001 62.3568C58.7169 62.3602 58.7336 62.3621 58.7505 62.3645C58.765 62.3666 58.7795 62.3693 58.7941 62.3708C58.826 62.3739 58.858 62.3756 58.89 62.3756C58.922 62.3756 58.9539 62.3739 58.9858 62.3708C59.0006 62.3694 59.0149 62.3667 59.0294 62.3645C59.0463 62.362 59.0632 62.36 59.0798 62.3568C59.0966 62.3534 59.1126 62.3489 59.1289 62.3448C59.1433 62.3411 59.1576 62.3381 59.1719 62.3337C59.1881 62.3288 59.2037 62.3228 59.2195 62.3171C59.2337 62.3121 59.2477 62.3074 59.2616 62.3016C59.2764 62.2954 59.2909 62.2882 59.3054 62.2812C59.3196 62.2746 59.3339 62.2682 59.3478 62.2609C59.3618 62.2534 59.3751 62.2448 59.3887 62.2366C59.4023 62.2284 59.416 62.2208 59.4293 62.212C59.444 62.2021 59.458 62.1911 59.4723 62.1804C59.4834 62.1719 59.4949 62.1642 59.5058 62.1553C59.5292 62.1361 59.5516 62.1158 59.5732 62.0943C59.5745 62.093 59.5759 62.092 59.577 62.0908L62.6872 58.9807C63.0668 58.6011 63.0668 57.9856 62.6872 57.6063C62.3075 57.2267 61.6921 57.2267 61.3126 57.6063L59.8617 59.0573V55.1187H64.0735ZM58.89 34.514C58.2826 34.514 57.7884 34.0198 57.7884 33.4125C57.7884 32.8051 58.2826 32.3109 58.89 32.3109C59.4973 32.3109 59.9915 32.805 59.9915 33.4125C59.9915 34.02 59.4973 34.514 58.89 34.514Z" fill="white"/>
</svg>
