<svg width="103" height="103" viewBox="0 0 103 103" fill="none" xmlns="http://www.w3.org/2000/svg">
<rect width="103" height="103" rx="51.5" fill="#3B82F6"/>
<path d="M69.6242 42.678C69.025 42.4733 68.4215 42.2827 67.8137 42.1061C67.9145 41.696 68.0074 41.2835 68.0926 40.8686C69.4637 34.2007 68.5672 28.8288 65.5074 27.0604C62.5777 25.3636 57.7731 27.1319 52.9262 31.36C52.4496 31.7772 51.9828 32.2069 51.5258 32.6491C51.2211 32.3554 50.9086 32.0679 50.5883 31.7866C45.5082 27.2655 40.4164 25.3612 37.3602 27.1354C34.4305 28.8358 33.5598 33.8854 34.7938 40.2054C34.9172 40.8304 35.0559 41.4526 35.2098 42.0722C34.4891 42.2772 33.793 42.4964 33.1273 42.7284C27.1789 44.8085 23.375 48.0698 23.375 51.4518C23.375 54.9464 27.4578 58.4503 33.6605 60.5749C34.1637 60.746 34.6715 60.905 35.184 61.0518C35.0176 61.7151 34.8703 62.3858 34.7422 63.0639C33.5703 69.2749 34.4844 74.205 37.4082 75.8948C40.4281 77.6397 45.4941 75.8468 50.4324 71.5225C50.823 71.1804 51.2137 70.819 51.6043 70.4386C52.0981 70.9159 52.6059 71.3792 53.1277 71.8284C57.909 75.9511 62.6305 77.6163 65.5496 75.9218C68.5672 74.171 69.548 68.8741 68.2742 62.43C68.1766 61.9378 68.0641 61.4354 67.9367 60.9229C68.293 60.8175 68.6418 60.7085 68.9832 60.596C75.4285 58.455 79.6273 54.9932 79.6273 51.4554C79.625 48.0569 75.6992 44.7745 69.6242 42.678ZM54.507 33.1765C58.659 29.5542 62.5402 28.1245 64.3098 29.1464C66.193 30.235 66.9254 34.6249 65.7418 40.3823C65.6637 40.7573 65.5793 41.1311 65.4887 41.5038C63.0109 40.9402 60.4983 40.5424 57.9676 40.3132C56.5186 38.2259 54.9302 36.239 53.2133 34.3659C53.6336 33.9581 54.0641 33.5616 54.5047 33.1765H54.507ZM39.984 54.3417C40.4926 55.3261 41.0242 56.2983 41.5789 57.2585C42.1438 58.2382 42.7324 59.2034 43.3449 60.1542C41.6036 59.9649 39.8732 59.686 38.1605 59.3186C38.6574 57.7108 39.2691 56.0409 39.984 54.3417ZM39.984 48.678C39.2809 47.0151 38.6855 45.3792 38.1969 43.7995C39.8023 43.4397 41.5133 43.1456 43.2969 42.9229C42.6992 43.8557 42.1242 44.8022 41.5719 45.7624C41.0195 46.7225 40.4891 47.6944 39.9805 48.678H39.984ZM41.2613 51.5104C42.002 49.9659 42.7996 48.4511 43.6543 46.9659C44.5082 45.4815 45.4172 44.0311 46.3813 42.6147C48.0547 42.4882 49.7703 42.4214 51.5035 42.4214C53.2367 42.4214 54.9629 42.4882 56.6352 42.6159C57.5891 44.0292 58.4926 45.4745 59.3457 46.9518C60.1988 48.4292 61.007 49.937 61.7703 51.4753C61.0172 53.0253 60.2109 54.5464 59.3516 56.0386C58.4992 57.5229 57.6008 58.9776 56.6563 60.4026C54.9863 60.5198 53.2578 60.5843 51.5 60.5843C49.7422 60.5843 48.0465 60.5292 46.407 60.4225C45.4359 59.0015 44.5195 57.5448 43.6578 56.0526C42.7961 54.5604 41.9961 53.0464 41.2578 51.5104H41.2613ZM61.4316 57.2421C61.9981 56.2593 62.5418 55.2636 63.0629 54.255C63.7772 55.8746 64.4077 57.5299 64.952 59.2143C63.2192 59.6045 61.4672 59.9038 59.7031 60.1108C60.2984 59.1663 60.8746 58.21 61.4316 57.2421ZM63.0395 48.6792C62.5207 47.6909 61.9813 46.7143 61.4211 45.7495C60.8742 44.7979 60.3043 43.8581 59.7113 42.93C61.5055 43.1573 63.227 43.4597 64.8406 43.8288C64.3218 45.4747 63.7207 47.0936 63.0395 48.6792ZM51.527 36.0874C52.6971 37.366 53.802 38.7029 54.8375 40.0929C52.6227 39.9874 50.4063 39.9874 48.1883 40.0929C49.2816 38.6468 50.4008 37.305 51.527 36.0874ZM38.5695 29.2179C40.4516 28.1257 44.6129 29.6866 48.9992 33.5854C49.2793 33.835 49.5617 34.0964 49.843 34.3671C48.1172 36.2399 46.5176 38.2251 45.0547 40.3097C42.5296 40.5372 40.022 40.9286 37.5477 41.4815C37.4047 40.9065 37.2758 40.3276 37.1609 39.7448C36.1004 34.3272 36.8023 30.2432 38.5695 29.2179ZM35.8262 58.7315C35.3574 58.5979 34.8945 58.453 34.4375 58.2968C31.6953 57.3593 29.4301 56.1358 27.875 54.8034C26.4828 53.6093 25.7773 52.4175 25.7773 51.4518C25.7773 49.3999 28.8313 46.7819 33.9242 45.0065C34.5641 44.7839 35.2094 44.5804 35.8602 44.396C36.6165 46.8268 37.5326 49.205 38.6023 51.5151C37.5198 53.8572 36.5925 56.2678 35.8262 58.7315ZM48.8492 69.7085C46.666 71.621 44.4793 72.9768 42.5516 73.66C40.8195 74.2729 39.4402 74.2905 38.607 73.8089C36.8328 72.7835 36.0945 68.8237 37.1012 63.5128C37.2207 62.8878 37.3574 62.2628 37.5113 61.6378C40.0104 62.1761 42.5432 62.5438 45.0922 62.7382C46.5694 64.8336 48.1822 66.8301 49.9203 68.7147C49.5711 69.0581 49.2137 69.3886 48.8492 69.7085ZM51.5938 66.9874C50.4547 65.7557 49.318 64.3929 48.2094 62.928C49.2867 62.9702 50.3836 62.9913 51.5 62.9913C52.6461 62.9913 53.7805 62.9667 54.8984 62.9163C53.8667 64.3286 52.7637 65.6874 51.5938 66.9874ZM66.1859 70.3378C65.8508 72.1472 65.177 73.3542 64.3438 73.837C62.5707 74.8659 58.7797 73.5288 54.6922 70.0026C54.2234 69.5995 53.7547 69.1671 53.2777 68.7136C54.982 66.8215 56.557 64.817 57.9922 62.7136C60.5553 62.4964 63.1004 62.1029 65.6094 61.5358C65.7242 61.9999 65.8258 62.4546 65.9141 62.8999C66.4777 65.7475 66.5586 68.3233 66.1859 70.3378ZM68.225 58.3097C67.918 58.4116 67.6016 58.51 67.2805 58.6061C66.4937 56.1639 65.5419 53.7779 64.4316 51.4647C65.5003 49.1824 66.4148 46.831 67.1691 44.4265C67.7445 44.594 68.3035 44.7698 68.8414 44.9561C74.0469 46.7515 77.2227 49.4093 77.2227 51.4518C77.2227 53.6315 73.7926 56.4604 68.225 58.3097Z" fill="white"/>
<path d="M51.5 56.4863C52.4973 56.4896 53.4731 56.1968 54.304 55.6451C55.1348 55.0933 55.7832 54.3075 56.1671 53.387C56.551 52.4665 56.6532 51.4528 56.4606 50.4743C56.268 49.4957 55.7894 48.5963 55.0853 47.8899C54.3813 47.1836 53.4834 46.702 52.5055 46.5062C51.5276 46.3105 50.5135 46.4093 49.5918 46.7902C48.6701 47.1711 47.8821 47.817 47.3277 48.646C46.7733 49.475 46.4773 50.4499 46.4773 51.4472C46.4759 52.108 46.6048 52.7625 46.8565 53.3735C47.1082 53.9844 47.4779 54.5397 47.9443 55.0077C48.4108 55.4757 48.9649 55.8471 49.575 56.1008C50.1851 56.3546 50.8392 56.4855 51.5 56.4863Z" fill="white"/>
</svg>
