<svg width="103" height="103" viewBox="0 0 103 103" fill="none" xmlns="http://www.w3.org/2000/svg">
<rect width="103" height="103" rx="51.5" fill="#3B82F6"/>
<path d="M72.0125 62.48C65.84 70.7025 52.66 67.9275 44.2075 68.325C44.2075 68.325 42.71 68.41 41.205 68.6575C41.205 68.6575 41.775 68.415 42.5025 68.1625C48.4375 66.11 51.2425 65.6975 54.85 63.845C61.625 60.375 68.37 52.8125 69.7425 44.9575C67.1625 52.5125 59.3175 59.015 52.175 61.655C47.2875 63.46 38.445 65.215 38.4425 65.215C38.3224 65.1535 38.2032 65.0901 38.085 65.025C32.0725 62.1 31.8975 49.075 42.82 44.8775C47.61 43.0375 52.1875 44.0475 57.365 42.815C62.885 41.5025 69.28 37.365 71.8775 31.955C74.79 40.6 78.29 54.12 72.0125 62.48ZM72.1175 29.28C71.4192 30.9544 70.5255 32.5404 69.455 34.005C67.1279 31.6066 64.3429 29.7 61.265 28.3984C58.1872 27.0967 54.8793 26.4265 51.5375 26.4275C37.73 26.4275 26.5 37.6575 26.5 51.4625C26.4984 54.9061 27.2094 58.3127 28.5884 61.4681C29.9673 64.6235 31.9843 67.4595 34.5125 69.7975L35.0625 70.2825C34.6616 69.8809 34.4366 69.3366 34.437 68.7692C34.4373 68.2018 34.663 67.6578 35.0644 67.2567C35.4658 66.8556 36.01 66.6304 36.5774 66.6305C37.1448 66.6307 37.6889 66.8561 38.0902 67.2573C38.4914 67.6585 38.7168 68.2027 38.717 68.7701C38.7171 69.3375 38.4918 69.8817 38.0908 70.2831C37.6897 70.6845 37.1457 70.9102 36.5783 70.9105C36.0109 70.9109 35.4666 70.6859 35.065 70.285L35.4375 70.615C39.9385 74.4203 45.6435 76.5057 51.5375 76.5C64.7325 76.5 75.57 66.23 76.4975 53.27C77.1825 46.9225 75.3075 38.8625 72.1175 29.28Z" fill="white"/>
</svg>
