<svg width="18" height="18" viewBox="0 0 18 18" fill="none" xmlns="http://www.w3.org/2000/svg">
<g clip-path="url(#clip0_50_62)">
<path fill-rule="evenodd" clip-rule="evenodd" d="M8.6763 13.1082C11.5337 13.1082 14.1205 11.5144 15.5103 8.99984C14.1205 6.48525 11.5337 4.8915 8.6763 4.8915C5.81888 4.8915 3.23205 6.48525 1.84229 8.99984C3.23205 11.5144 5.81888 13.1082 8.6763 13.1082ZM8.6763 4.0415C12.082 4.0415 15.0315 6.05884 16.468 8.99984C15.0315 11.9408 12.082 13.9582 8.6763 13.9582C5.27063 13.9582 2.32113 11.9408 0.884628 8.99984C2.32113 6.05884 5.27063 4.0415 8.6763 4.0415ZM8.6763 10.9832C9.20231 10.9832 9.70678 10.7742 10.0787 10.4023C10.4507 10.0303 10.6596 9.52585 10.6596 8.99984C10.6596 8.47382 10.4507 7.96936 10.0787 7.59741C9.70678 7.22546 9.20231 7.0165 8.6763 7.0165C8.15028 7.0165 7.64581 7.22546 7.27387 7.59741C6.90192 7.96936 6.69296 8.47382 6.69296 8.99984C6.69296 9.52585 6.90192 10.0303 7.27387 10.4023C7.64581 10.7742 8.15028 10.9832 8.6763 10.9832ZM8.6763 11.8332C7.92485 11.8332 7.20418 11.5347 6.67283 11.0033C6.14147 10.472 5.84296 9.75128 5.84296 8.99984C5.84296 8.24839 6.14147 7.52772 6.67283 6.99637C7.20418 6.46501 7.92485 6.1665 8.6763 6.1665C9.42774 6.1665 10.1484 6.46501 10.6798 6.99637C11.2111 7.52772 11.5096 8.24839 11.5096 8.99984C11.5096 9.75128 11.2111 10.472 10.6798 11.0033C10.1484 11.5347 9.42774 11.8332 8.6763 11.8332Z" fill="white"/>
</g>
<defs>
<clipPath id="clip0_50_62">
<rect width="17" height="17" fill="white" transform="translate(0.1763 0.5)"/>
</clipPath>
</defs>
</svg>
