<svg width="100" height="100" viewBox="0 0 100 100" fill="none" xmlns="http://www.w3.org/2000/svg">
<rect width="100" height="100" rx="50" fill="#3B82F6"/>
<path d="M19 49.0261V48.9419C19.7524 39.098 23.2683 31.7143 29.3762 27.0462C35.4011 22.294 41.9294 20.002 49.0415 20.002C56.4883 19.9178 63.4343 22.4623 69.6279 27.554C75.9045 32.5616 79 40.0294 79 49.7023V50.297C79 60.0568 75.9045 67.3536 69.6279 72.3611C63.3513 77.4528 56.4053 80 48.9585 80H48.6238C41.343 79.9158 34.6487 77.3686 28.4578 72.2769C22.2642 67.2694 19.0857 59.5463 19.0027 49.0234L19 49.0261ZM47.1992 35.7035V22.294H45.1909C44.7732 22.8045 44.4385 23.3965 44.1038 23.907C43.769 24.4176 43.4343 24.9254 43.0996 25.5201C42.7649 26.0306 42.3472 26.7095 42.0955 27.2173C41.7607 27.7278 41.509 28.2357 41.2573 28.8304C40.7539 29.6803 40.3362 30.5276 40.0015 31.2907C39.5837 32.0538 39.249 32.8195 38.9973 33.4984C39.5007 33.8379 40.0845 34.2615 40.7539 34.5168C41.5064 34.772 42.2615 35.0273 43.0139 35.1957C43.8521 35.3668 44.6045 35.4509 45.2739 35.5351C46.0264 35.6193 46.6958 35.7062 47.1992 35.7062V35.7035ZM50.7151 22.2967V35.6193C51.1328 35.6193 51.6362 35.7035 52.137 35.6193C52.6404 35.6193 53.2241 35.5351 53.7275 35.4482C54.6487 35.2771 55.7358 35.0246 56.574 34.7693C57.4951 34.4299 58.3306 34.0063 58.917 33.4957C57.9128 31.0354 56.8257 29.0829 55.7358 27.2146C54.646 25.3463 53.3928 23.7359 52.054 22.3782V22.294H50.7151V22.2967ZM41.6777 23.0598V22.9756C41.0913 23.2308 40.5049 23.6545 39.8355 23.9097C39.249 24.165 38.4966 24.5045 37.9102 24.8439C36.7373 25.4386 35.5671 26.1175 34.3943 26.8806C33.3071 27.6437 32.2173 28.4936 31.2988 29.3409C31.6336 29.6803 32.0513 30.0198 32.386 30.2751C32.7207 30.5303 33.1384 30.8698 33.5588 31.2092C33.8936 31.3803 34.3113 31.6328 34.7317 31.9723C35.1494 32.2276 35.6528 32.567 36.1536 32.9064C36.823 31.3776 37.4924 29.7672 38.3306 28.3226C39.1687 26.7937 40.0872 25.3517 41.0083 24.0781C41.0913 23.907 41.177 23.7387 41.343 23.5676C41.426 23.4834 41.5117 23.2308 41.6777 23.0598ZM67.2822 29.3382V29.254C65.1909 27.6409 63.3486 26.2832 61.509 25.4359C59.6694 24.5886 57.8272 23.7387 56.1536 23.0598C57.4924 24.4176 58.6653 26.1148 59.4177 27.7278C60.2559 29.4251 61.0913 31.2065 61.7607 32.9037C62.0955 32.7327 62.5132 32.5643 63.0166 32.2248C63.4343 31.9696 64.0208 31.7143 64.5242 31.4618C65.0276 31.1223 65.4453 30.7829 65.946 30.4434C66.4495 30.0198 66.9502 29.6803 67.2849 29.3409L67.2822 29.3382ZM65.8604 48.263H75.4841C75.4841 45.1238 74.8147 42.153 73.5588 39.098C72.386 36.1271 70.7124 33.6668 68.6211 31.5459V31.4618C68.2034 32.1407 67.617 32.7354 67.0305 33.159C66.3611 33.5826 65.7747 33.9221 65.1052 34.2615C64.6875 34.5168 64.2671 34.8562 63.8494 35.0246C63.4317 35.2799 62.8452 35.4482 62.4275 35.7035C62.7622 36.3824 63.0969 37.1455 63.4317 37.8244C63.6834 38.5874 64.1011 39.4374 64.2698 40.2005C64.7732 41.5583 65.1079 43.0002 65.4426 44.4449C65.6943 45.7185 65.8604 47.0763 65.8604 48.263ZM35.5698 35.7035V35.6193C34.9004 35.2799 34.1479 35.0246 33.5615 34.6852C32.9751 34.2615 32.3887 33.8352 31.8879 33.4957C31.3845 33.2405 30.8838 32.901 30.4661 32.5616C30.0483 32.2221 29.7136 31.8827 29.3789 31.5432C27.2019 33.6641 25.614 36.0402 24.6099 38.8427C23.5227 41.6425 22.7676 44.7844 22.4329 48.1789H32.7261C32.7261 45.8027 33.0608 43.5108 33.6472 41.2188C34.1506 38.8427 34.9004 37.0613 35.5698 35.7035ZM47.1992 48.1789V38.4191C46.5298 38.5033 45.6917 38.5033 44.9392 38.4191C44.1011 38.3349 43.2656 38.0796 42.5132 37.8244C41.8438 37.6533 41.0056 37.4849 40.3362 37.2296C39.5837 37.0586 38.8286 36.7191 38.2449 36.3797C37.7415 37.2296 37.3237 38.248 36.989 39.3505C36.5713 40.3689 36.3196 41.4714 36.0679 42.4897C35.8992 43.5081 35.8162 44.6106 35.7332 45.5447C35.6502 46.4789 35.5645 47.4131 35.5645 48.1761H47.1965L47.1992 48.1789ZM50.7151 38.5902V48.1789H63.0996C63.0996 47.6683 63.0996 47.0763 63.0166 46.3974C62.8479 45.8027 62.7649 45.0396 62.6819 44.3608C62.4302 43.3424 62.1785 42.2399 61.8438 41.2215C61.509 40.2874 61.1743 39.3532 60.7566 38.5902C60.5879 38.1665 60.4219 37.656 60.2532 37.3165C60.0015 36.8929 59.7498 36.6377 59.5837 36.3824C58.6626 37.0613 57.4067 37.4849 55.9019 37.8244C54.48 38.1638 52.8064 38.5033 51.2988 38.5874H50.7124L50.7151 38.5902ZM32.7234 50.9786H22.4302C22.4302 52.4206 22.6819 54.0336 23.0996 55.9861C23.5173 58.0228 24.3555 59.8911 25.2766 61.9278C25.6943 62.9462 26.1978 63.9645 26.6985 64.9829C27.2849 65.917 27.9543 66.9354 28.6238 67.8695C29.1272 67.5301 29.6279 67.2748 30.0457 67.0195C30.5491 66.7643 31.1328 66.4248 31.6362 66.1696C32.2227 65.9143 32.8091 65.659 33.4785 65.3196C34.0649 65.0643 34.8174 64.7249 35.5698 64.3854C34.9004 62.2646 34.1479 60.2279 33.6445 57.9359C33.0581 55.7282 32.7234 53.5231 32.7234 51.0628V50.9786ZM47.1992 60.9068V50.9786H35.5671C35.5671 51.6575 35.6502 52.6759 35.8189 53.6942C35.9019 54.7125 36.1536 55.8151 36.3223 56.9203C36.657 58.1097 36.9087 59.2964 37.2434 60.3148C37.5781 61.3331 37.9128 62.1831 38.2476 62.9462C39.7551 62.3515 41.26 61.9278 42.2642 61.6726C43.3513 61.3331 44.3555 61.0779 45.3596 60.9937H46.2808C46.6155 60.9095 46.9502 60.9095 47.2019 60.9095L47.1992 60.9068ZM50.7151 50.9786V60.8226C51.3015 60.9068 51.9709 60.9937 52.6404 61.0779C53.3928 61.162 54.314 61.3331 55.0664 61.5015L56.3223 61.7567C56.74 61.9278 57.2434 62.012 57.6611 62.0962C58.1645 62.2673 58.6653 62.3515 59.1687 62.5198C59.5864 62.6909 60.0068 62.7751 60.3415 62.9435C61.4287 60.1437 62.0981 57.8517 62.5185 55.8992C62.9363 54.0309 63.105 52.4206 63.105 51.0628V50.9786H50.7204H50.7151ZM75.4841 51.0628V50.9786H65.8604V51.4891C65.7773 53.1022 65.5256 54.9678 65.1909 56.9203C64.8562 58.7886 64.1038 60.9937 63.0996 63.7092C64.4385 64.3881 65.6943 65.067 66.6985 65.7459C67.7026 66.4248 68.6238 67.1879 69.2932 67.8668C70.7151 66.4248 71.9709 64.4723 73.0581 61.9251C74.1453 59.4648 74.9004 56.9176 75.3181 54.202C75.4011 53.6915 75.4011 53.1837 75.4868 52.6731V51.0601L75.4841 51.0628ZM47.1992 76.8608V63.6224C45.1079 63.9618 43.3486 64.3854 42.0098 64.7249C40.6709 65.0643 39.6668 65.4038 38.9973 65.7432C39.5007 67.0168 40.0015 68.1194 40.5049 69.1377C41.0083 70.0718 41.592 71.0902 42.0955 71.9375C42.2642 72.2769 42.5989 72.6163 42.8479 73.04C43.0996 73.3794 43.2656 73.8031 43.5173 74.1425C43.769 74.5661 44.0208 75.0767 44.2698 75.5845C44.6045 76.0081 44.8562 76.5186 45.1909 76.8581L47.1992 76.8608ZM50.7151 76.8608H52.6404C53.3928 76.2661 54.1479 75.4188 54.7317 74.4847C55.4011 73.5505 56.1536 72.448 56.657 71.5138C57.2434 70.4113 57.8298 69.393 58.3306 68.3746C58.8313 67.3563 59.2517 66.4221 59.5864 65.7432C58.6653 65.4038 57.4094 65.0643 56.1562 64.7249C54.9031 64.3854 53.1438 64.046 50.7178 63.7065V76.8608H50.7151ZM67.2822 69.9035V69.8193C67.1135 69.564 66.7788 69.2246 66.5298 68.9693C66.2808 68.7141 65.8604 68.3746 65.4426 68.1194C65.1079 67.8641 64.6902 67.6088 64.1868 67.3563C63.6834 67.1037 63.0139 66.7616 62.4302 66.4221C62.0955 67.101 61.509 68.2904 60.6736 69.9008C59.9211 71.5138 58.5823 73.4663 56.9087 75.5872C59 75.2477 60.8423 74.4847 62.5159 73.4663C64.3581 72.5322 65.946 71.2586 67.2849 69.9008L67.2822 69.9035ZM36.1536 67.1879V67.1037C35.5671 67.4432 34.646 67.8668 33.7275 68.2931C32.7234 68.7168 31.6362 69.2273 30.6321 69.9062C31.2185 70.4167 31.8049 70.9245 32.3057 71.264C32.8091 71.6876 33.3928 72.0271 33.8962 72.3665C34.8174 72.9612 35.9045 73.5559 36.9917 74.0637C38.0789 74.5716 39.4177 75.0821 41.0913 75.5926C40.5049 74.9137 40.0872 74.0637 39.6694 73.3849C39.2517 72.706 38.7483 72.0271 38.3306 71.3482C37.9128 70.6693 37.5781 69.9062 37.2434 69.2273C36.8257 68.5484 36.491 67.8695 36.1562 67.1906L36.1536 67.1879Z" fill="white"/>
</svg>
